G04 #@! TF.FileFunction,Paste,Top*
%FSLAX46Y46*%
G04 Gerber Fmt 4.6, Leading zero omitted, Abs format (unit mm)*
G04 Created by KiCad (PCBNEW 4.0.0-stable) date Thursday, March 17, 2016 'AMt' 12:56:01 AM*
%MOMM*%
G01*
G04 APERTURE LIST*
%ADD10C,0.100000*%
%ADD11R,1.250000X1.000000*%
%ADD12R,1.230000X1.800000*%
%ADD13R,1.300000X0.700000*%
%ADD14R,0.889000X1.680000*%
%ADD15R,0.600000X2.000000*%
%ADD16R,1.198880X1.198880*%
%ADD17R,0.700000X1.300000*%
G04 APERTURE END LIST*
D10*
D11*
X19500000Y19000000D03*
X19500000Y21000000D03*
D12*
X15000000Y15190000D03*
X15000000Y17810000D03*
D11*
X19500000Y16500000D03*
X19500000Y14500000D03*
D13*
X38805000Y15760000D03*
X38805000Y13860000D03*
D10*
G36*
X38155000Y15410000D02*
X39455000Y15410000D01*
X39155000Y15010000D01*
X38455000Y15010000D01*
X38155000Y15410000D01*
X38155000Y15410000D01*
G37*
G36*
X38455000Y14610000D02*
X39155000Y14610000D01*
X39455000Y14210000D01*
X38155000Y14210000D01*
X38455000Y14610000D01*
X38455000Y14610000D01*
G37*
D13*
X36900000Y15760000D03*
X36900000Y13860000D03*
D10*
G36*
X36250000Y15410000D02*
X37550000Y15410000D01*
X37250000Y15010000D01*
X36550000Y15010000D01*
X36250000Y15410000D01*
X36250000Y15410000D01*
G37*
G36*
X36550000Y14610000D02*
X37250000Y14610000D01*
X37550000Y14210000D01*
X36250000Y14210000D01*
X36550000Y14610000D01*
X36550000Y14610000D01*
G37*
D13*
X34995000Y15760000D03*
X34995000Y13860000D03*
D10*
G36*
X34345000Y15410000D02*
X35645000Y15410000D01*
X35345000Y15010000D01*
X34645000Y15010000D01*
X34345000Y15410000D01*
X34345000Y15410000D01*
G37*
G36*
X34645000Y14610000D02*
X35345000Y14610000D01*
X35645000Y14210000D01*
X34345000Y14210000D01*
X34645000Y14610000D01*
X34645000Y14610000D01*
G37*
D13*
X33090000Y15760000D03*
X33090000Y13860000D03*
D10*
G36*
X32440000Y15410000D02*
X33740000Y15410000D01*
X33440000Y15010000D01*
X32740000Y15010000D01*
X32440000Y15410000D01*
X32440000Y15410000D01*
G37*
G36*
X32740000Y14610000D02*
X33440000Y14610000D01*
X33740000Y14210000D01*
X32440000Y14210000D01*
X32740000Y14610000D01*
X32740000Y14610000D01*
G37*
D13*
X31185000Y15760000D03*
X31185000Y13860000D03*
D10*
G36*
X30535000Y15410000D02*
X31835000Y15410000D01*
X31535000Y15010000D01*
X30835000Y15010000D01*
X30535000Y15410000D01*
X30535000Y15410000D01*
G37*
G36*
X30835000Y14610000D02*
X31535000Y14610000D01*
X31835000Y14210000D01*
X30535000Y14210000D01*
X30835000Y14610000D01*
X30835000Y14610000D01*
G37*
D13*
X29280000Y15760000D03*
X29280000Y13860000D03*
D10*
G36*
X28630000Y15410000D02*
X29930000Y15410000D01*
X29630000Y15010000D01*
X28930000Y15010000D01*
X28630000Y15410000D01*
X28630000Y15410000D01*
G37*
G36*
X28930000Y14610000D02*
X29630000Y14610000D01*
X29930000Y14210000D01*
X28630000Y14210000D01*
X28930000Y14610000D01*
X28930000Y14610000D01*
G37*
D13*
X27375000Y15760000D03*
X27375000Y13860000D03*
D10*
G36*
X26725000Y15410000D02*
X28025000Y15410000D01*
X27725000Y15010000D01*
X27025000Y15010000D01*
X26725000Y15410000D01*
X26725000Y15410000D01*
G37*
G36*
X27025000Y14610000D02*
X27725000Y14610000D01*
X28025000Y14210000D01*
X26725000Y14210000D01*
X27025000Y14610000D01*
X27025000Y14610000D01*
G37*
D13*
X25470000Y15760000D03*
X25470000Y13860000D03*
D10*
G36*
X24820000Y15410000D02*
X26120000Y15410000D01*
X25820000Y15010000D01*
X25120000Y15010000D01*
X24820000Y15410000D01*
X24820000Y15410000D01*
G37*
G36*
X25120000Y14610000D02*
X25820000Y14610000D01*
X26120000Y14210000D01*
X24820000Y14210000D01*
X25120000Y14610000D01*
X25120000Y14610000D01*
G37*
D13*
X10500000Y16450000D03*
X10500000Y14550000D03*
D10*
G36*
X9850000Y16100000D02*
X11150000Y16100000D01*
X10850000Y15700000D01*
X10150000Y15700000D01*
X9850000Y16100000D01*
X9850000Y16100000D01*
G37*
G36*
X10150000Y15300000D02*
X10850000Y15300000D01*
X11150000Y14900000D01*
X9850000Y14900000D01*
X10150000Y15300000D01*
X10150000Y15300000D01*
G37*
D13*
X10500000Y19050000D03*
X10500000Y20950000D03*
D10*
G36*
X11150000Y19400000D02*
X9850000Y19400000D01*
X10150000Y19800000D01*
X10850000Y19800000D01*
X11150000Y19400000D01*
X11150000Y19400000D01*
G37*
G36*
X10850000Y20200000D02*
X10150000Y20200000D01*
X9850000Y20600000D01*
X11150000Y20600000D01*
X10850000Y20200000D01*
X10850000Y20200000D01*
G37*
D14*
X8370000Y23920000D03*
X8370000Y29080000D03*
X10910000Y23920000D03*
X10910000Y29080000D03*
X13450000Y23920000D03*
X13450000Y29080000D03*
X15990000Y23920000D03*
X15990000Y29080000D03*
X18530000Y23920000D03*
X18530000Y29080000D03*
X21070000Y23920000D03*
X21070000Y29080000D03*
X23610000Y23920000D03*
X23610000Y29080000D03*
X26150000Y23920000D03*
X26150000Y29080000D03*
X28690000Y23920000D03*
X28690000Y29080000D03*
X31230000Y23920000D03*
X31230000Y29080000D03*
X33770000Y23920000D03*
X33770000Y29080000D03*
X36310000Y23920000D03*
X36310000Y29080000D03*
X38850000Y23920000D03*
X38850000Y29080000D03*
D15*
X25085000Y11110000D03*
X26355000Y11110000D03*
X27625000Y11110000D03*
X28895000Y11110000D03*
X30165000Y11110000D03*
X31435000Y11110000D03*
X32705000Y11110000D03*
X33975000Y11110000D03*
X35245000Y11110000D03*
X36515000Y11110000D03*
X37785000Y11110000D03*
X39055000Y11110000D03*
X39055000Y20510000D03*
X37785000Y20510000D03*
X36515000Y20510000D03*
X35245000Y20510000D03*
X33975000Y20510000D03*
X32705000Y20510000D03*
X31435000Y20510000D03*
X30165000Y20510000D03*
X28895000Y20510000D03*
X27625000Y20510000D03*
X26355000Y20510000D03*
X25085000Y20510000D03*
D16*
X4549020Y21000000D03*
X2450980Y21000000D03*
X4549020Y12250000D03*
X2450980Y12250000D03*
D17*
X2550000Y18500000D03*
X4450000Y18500000D03*
X2550000Y9750000D03*
X4450000Y9750000D03*
M02*
