G04 #@! TF.FileFunction,Copper,L2,Bot,Signal*
%FSLAX46Y46*%
G04 Gerber Fmt 4.6, Leading zero omitted, Abs format (unit mm)*
G04 Created by KiCad (PCBNEW 4.0.0-stable) date Tuesday, March 22, 2016 'PMt' 06:17:10 PM*
%MOMM*%
G01*
G04 APERTURE LIST*
%ADD10C,0.100000*%
%ADD11C,4.500000*%
%ADD12C,1.500000*%
%ADD13R,2.032000X1.727200*%
%ADD14O,2.032000X1.727200*%
%ADD15C,0.600000*%
%ADD16C,0.250000*%
%ADD17C,0.254000*%
G04 APERTURE END LIST*
D10*
D11*
X3500000Y26500000D03*
X3500000Y3500000D03*
D12*
X8370000Y25230000D03*
X8370000Y27770000D03*
X10910000Y25230000D03*
X13450000Y25230000D03*
X15990000Y25230000D03*
X18530000Y25230000D03*
X21070000Y25230000D03*
X23610000Y25230000D03*
X26150000Y25230000D03*
X28690000Y25230000D03*
X31230000Y25230000D03*
X33770000Y25230000D03*
X36310000Y25230000D03*
X38850000Y25230000D03*
X10910000Y27770000D03*
X13450000Y27770000D03*
X15990000Y27770000D03*
X18530000Y27770000D03*
X21070000Y27770000D03*
X23610000Y27770000D03*
X26150000Y27770000D03*
X28690000Y27770000D03*
X31230000Y27770000D03*
X33770000Y27770000D03*
X36310000Y27770000D03*
X38850000Y27770000D03*
D13*
X18530000Y2200000D03*
D14*
X18530000Y4740000D03*
X18530000Y7280000D03*
D13*
X21070000Y2200000D03*
D14*
X21070000Y4740000D03*
X21070000Y7280000D03*
D13*
X23610000Y2200000D03*
D14*
X23610000Y4740000D03*
X23610000Y7280000D03*
D13*
X26150000Y2200000D03*
D14*
X26150000Y4740000D03*
X26150000Y7280000D03*
D13*
X28690000Y2200000D03*
D14*
X28690000Y4740000D03*
X28690000Y7280000D03*
D13*
X31230000Y2200000D03*
D14*
X31230000Y4740000D03*
X31230000Y7280000D03*
D13*
X33770000Y2200000D03*
D14*
X33770000Y4740000D03*
X33770000Y7280000D03*
D13*
X36310000Y2200000D03*
D14*
X36310000Y4740000D03*
X36310000Y7280000D03*
D13*
X38850000Y2200000D03*
D14*
X38850000Y4740000D03*
X38850000Y7280000D03*
D15*
X18000000Y19000000D03*
X40500000Y10500000D03*
X15000000Y13000000D03*
X27625000Y20510000D03*
X26355000Y11110000D03*
X18000000Y21000000D03*
X19500000Y13000000D03*
X6000000Y18500000D03*
X6000000Y10000000D03*
X29250000Y17250000D03*
X25500000Y17500000D03*
D16*
X18000000Y19000000D02*
X14600000Y19000000D01*
X14600000Y19000000D02*
X8370000Y25230000D01*
X29250000Y17250000D02*
X22534999Y23965001D01*
X22534999Y23965001D02*
X22534999Y26305001D01*
X22534999Y26305001D02*
X21819999Y27020001D01*
X21819999Y27020001D02*
X21070000Y27770000D01*
X18220000Y23000000D02*
X20000000Y23000000D01*
X20000000Y23000000D02*
X25500000Y17500000D01*
X15990000Y25230000D02*
X18220000Y23000000D01*
D17*
G36*
X43373000Y26447394D02*
X43373000Y3552606D01*
X40447394Y627000D01*
X3552606Y627000D01*
X3252088Y927518D01*
X3698662Y918163D01*
X4196360Y1005920D01*
X4667533Y1188677D01*
X5094236Y1459471D01*
X5460215Y1807988D01*
X5678728Y2117750D01*
X17187000Y2117750D01*
X17187000Y1304194D01*
X17199566Y1241018D01*
X17224216Y1181508D01*
X17260002Y1127950D01*
X17305549Y1082403D01*
X17359107Y1046616D01*
X17418617Y1021966D01*
X17481793Y1009400D01*
X18447750Y1009400D01*
X18529500Y1091150D01*
X18529500Y2199500D01*
X18530500Y2199500D01*
X18530500Y1091150D01*
X18612250Y1009400D01*
X19578207Y1009400D01*
X19641383Y1021966D01*
X19700893Y1046616D01*
X19754451Y1082403D01*
X19799998Y1127950D01*
X19800000Y1127953D01*
X19800002Y1127950D01*
X19845549Y1082403D01*
X19899107Y1046616D01*
X19958617Y1021966D01*
X20021793Y1009400D01*
X20987750Y1009400D01*
X21069500Y1091150D01*
X21069500Y2199500D01*
X21070500Y2199500D01*
X21070500Y1091150D01*
X21152250Y1009400D01*
X22118207Y1009400D01*
X22181383Y1021966D01*
X22240893Y1046616D01*
X22294451Y1082403D01*
X22339998Y1127950D01*
X22340000Y1127953D01*
X22340002Y1127950D01*
X22385549Y1082403D01*
X22439107Y1046616D01*
X22498617Y1021966D01*
X22561793Y1009400D01*
X23527750Y1009400D01*
X23609500Y1091150D01*
X23609500Y2199500D01*
X23610500Y2199500D01*
X23610500Y1091150D01*
X23692250Y1009400D01*
X24658207Y1009400D01*
X24721383Y1021966D01*
X24780893Y1046616D01*
X24834451Y1082403D01*
X24879998Y1127950D01*
X24880000Y1127953D01*
X24880002Y1127950D01*
X24925549Y1082403D01*
X24979107Y1046616D01*
X25038617Y1021966D01*
X25101793Y1009400D01*
X26067750Y1009400D01*
X26149500Y1091150D01*
X26149500Y2199500D01*
X26150500Y2199500D01*
X26150500Y1091150D01*
X26232250Y1009400D01*
X27198207Y1009400D01*
X27261383Y1021966D01*
X27320893Y1046616D01*
X27374451Y1082403D01*
X27419998Y1127950D01*
X27420000Y1127953D01*
X27420002Y1127950D01*
X27465549Y1082403D01*
X27519107Y1046616D01*
X27578617Y1021966D01*
X27641793Y1009400D01*
X28607750Y1009400D01*
X28689500Y1091150D01*
X28689500Y2199500D01*
X28690500Y2199500D01*
X28690500Y1091150D01*
X28772250Y1009400D01*
X29738207Y1009400D01*
X29801383Y1021966D01*
X29860893Y1046616D01*
X29914451Y1082403D01*
X29959998Y1127950D01*
X29960000Y1127953D01*
X29960002Y1127950D01*
X30005549Y1082403D01*
X30059107Y1046616D01*
X30118617Y1021966D01*
X30181793Y1009400D01*
X31147750Y1009400D01*
X31229500Y1091150D01*
X31229500Y2199500D01*
X31230500Y2199500D01*
X31230500Y1091150D01*
X31312250Y1009400D01*
X32278207Y1009400D01*
X32341383Y1021966D01*
X32400893Y1046616D01*
X32454451Y1082403D01*
X32499998Y1127950D01*
X32500000Y1127953D01*
X32500002Y1127950D01*
X32545549Y1082403D01*
X32599107Y1046616D01*
X32658617Y1021966D01*
X32721793Y1009400D01*
X33687750Y1009400D01*
X33769500Y1091150D01*
X33769500Y2199500D01*
X33770500Y2199500D01*
X33770500Y1091150D01*
X33852250Y1009400D01*
X34818207Y1009400D01*
X34881383Y1021966D01*
X34940893Y1046616D01*
X34994451Y1082403D01*
X35039998Y1127950D01*
X35040000Y1127953D01*
X35040002Y1127950D01*
X35085549Y1082403D01*
X35139107Y1046616D01*
X35198617Y1021966D01*
X35261793Y1009400D01*
X36227750Y1009400D01*
X36309500Y1091150D01*
X36309500Y2199500D01*
X36310500Y2199500D01*
X36310500Y1091150D01*
X36392250Y1009400D01*
X37358207Y1009400D01*
X37421383Y1021966D01*
X37480893Y1046616D01*
X37534451Y1082403D01*
X37579998Y1127950D01*
X37580000Y1127953D01*
X37580002Y1127950D01*
X37625549Y1082403D01*
X37679107Y1046616D01*
X37738617Y1021966D01*
X37801793Y1009400D01*
X38767750Y1009400D01*
X38849500Y1091150D01*
X38849500Y2199500D01*
X38850500Y2199500D01*
X38850500Y1091150D01*
X38932250Y1009400D01*
X39898207Y1009400D01*
X39961383Y1021966D01*
X40020893Y1046616D01*
X40074451Y1082403D01*
X40119998Y1127950D01*
X40155784Y1181508D01*
X40180434Y1241018D01*
X40193000Y1304194D01*
X40193000Y2117750D01*
X40111250Y2199500D01*
X38850500Y2199500D01*
X38849500Y2199500D01*
X37588750Y2199500D01*
X37580000Y2190750D01*
X37571250Y2199500D01*
X36310500Y2199500D01*
X36309500Y2199500D01*
X35048750Y2199500D01*
X35040000Y2190750D01*
X35031250Y2199500D01*
X33770500Y2199500D01*
X33769500Y2199500D01*
X32508750Y2199500D01*
X32500000Y2190750D01*
X32491250Y2199500D01*
X31230500Y2199500D01*
X31229500Y2199500D01*
X29968750Y2199500D01*
X29960000Y2190750D01*
X29951250Y2199500D01*
X28690500Y2199500D01*
X28689500Y2199500D01*
X27428750Y2199500D01*
X27420000Y2190750D01*
X27411250Y2199500D01*
X26150500Y2199500D01*
X26149500Y2199500D01*
X24888750Y2199500D01*
X24880000Y2190750D01*
X24871250Y2199500D01*
X23610500Y2199500D01*
X23609500Y2199500D01*
X22348750Y2199500D01*
X22340000Y2190750D01*
X22331250Y2199500D01*
X21070500Y2199500D01*
X21069500Y2199500D01*
X19808750Y2199500D01*
X19800000Y2190750D01*
X19791250Y2199500D01*
X18530500Y2199500D01*
X18529500Y2199500D01*
X17268750Y2199500D01*
X17187000Y2117750D01*
X5678728Y2117750D01*
X5751530Y2220953D01*
X5957085Y2682637D01*
X6050954Y3095806D01*
X17187000Y3095806D01*
X17187000Y2282250D01*
X17268750Y2200500D01*
X18529500Y2200500D01*
X18529500Y3308850D01*
X18530500Y3308850D01*
X18530500Y2200500D01*
X19791250Y2200500D01*
X19800000Y2209250D01*
X19808750Y2200500D01*
X21069500Y2200500D01*
X21069500Y3308850D01*
X21070500Y3308850D01*
X21070500Y2200500D01*
X22331250Y2200500D01*
X22340000Y2209250D01*
X22348750Y2200500D01*
X23609500Y2200500D01*
X23609500Y3308850D01*
X23610500Y3308850D01*
X23610500Y2200500D01*
X24871250Y2200500D01*
X24880000Y2209250D01*
X24888750Y2200500D01*
X26149500Y2200500D01*
X26149500Y3308850D01*
X26150500Y3308850D01*
X26150500Y2200500D01*
X27411250Y2200500D01*
X27420000Y2209250D01*
X27428750Y2200500D01*
X28689500Y2200500D01*
X28689500Y3308850D01*
X28690500Y3308850D01*
X28690500Y2200500D01*
X29951250Y2200500D01*
X29960000Y2209250D01*
X29968750Y2200500D01*
X31229500Y2200500D01*
X31229500Y3308850D01*
X31230500Y3308850D01*
X31230500Y2200500D01*
X32491250Y2200500D01*
X32500000Y2209250D01*
X32508750Y2200500D01*
X33769500Y2200500D01*
X33769500Y3308850D01*
X33770500Y3308850D01*
X33770500Y2200500D01*
X35031250Y2200500D01*
X35040000Y2209250D01*
X35048750Y2200500D01*
X36309500Y2200500D01*
X36309500Y3308850D01*
X36310500Y3308850D01*
X36310500Y2200500D01*
X37571250Y2200500D01*
X37580000Y2209250D01*
X37588750Y2200500D01*
X38849500Y2200500D01*
X38849500Y3308850D01*
X38850500Y3308850D01*
X38850500Y2200500D01*
X40111250Y2200500D01*
X40193000Y2282250D01*
X40193000Y3095806D01*
X40180434Y3158982D01*
X40155784Y3218492D01*
X40119998Y3272050D01*
X40074451Y3317597D01*
X40020893Y3353384D01*
X39961383Y3378034D01*
X39898207Y3390600D01*
X38932250Y3390600D01*
X38850500Y3308850D01*
X38849500Y3308850D01*
X38767750Y3390600D01*
X37801793Y3390600D01*
X37738617Y3378034D01*
X37679107Y3353384D01*
X37625549Y3317597D01*
X37580002Y3272050D01*
X37580000Y3272047D01*
X37579998Y3272050D01*
X37534451Y3317597D01*
X37480893Y3353384D01*
X37421383Y3378034D01*
X37358207Y3390600D01*
X36392250Y3390600D01*
X36310500Y3308850D01*
X36309500Y3308850D01*
X36227750Y3390600D01*
X35261793Y3390600D01*
X35198617Y3378034D01*
X35139107Y3353384D01*
X35085549Y3317597D01*
X35040002Y3272050D01*
X35040000Y3272047D01*
X35039998Y3272050D01*
X34994451Y3317597D01*
X34940893Y3353384D01*
X34881383Y3378034D01*
X34818207Y3390600D01*
X33852250Y3390600D01*
X33770500Y3308850D01*
X33769500Y3308850D01*
X33687750Y3390600D01*
X32721793Y3390600D01*
X32658617Y3378034D01*
X32599107Y3353384D01*
X32545549Y3317597D01*
X32500002Y3272050D01*
X32500000Y3272047D01*
X32499998Y3272050D01*
X32454451Y3317597D01*
X32400893Y3353384D01*
X32341383Y3378034D01*
X32278207Y3390600D01*
X31312250Y3390600D01*
X31230500Y3308850D01*
X31229500Y3308850D01*
X31147750Y3390600D01*
X30181793Y3390600D01*
X30118617Y3378034D01*
X30059107Y3353384D01*
X30005549Y3317597D01*
X29960002Y3272050D01*
X29960000Y3272047D01*
X29959998Y3272050D01*
X29914451Y3317597D01*
X29860893Y3353384D01*
X29801383Y3378034D01*
X29738207Y3390600D01*
X28772250Y3390600D01*
X28690500Y3308850D01*
X28689500Y3308850D01*
X28607750Y3390600D01*
X27641793Y3390600D01*
X27578617Y3378034D01*
X27519107Y3353384D01*
X27465549Y3317597D01*
X27420002Y3272050D01*
X27420000Y3272047D01*
X27419998Y3272050D01*
X27374451Y3317597D01*
X27320893Y3353384D01*
X27261383Y3378034D01*
X27198207Y3390600D01*
X26232250Y3390600D01*
X26150500Y3308850D01*
X26149500Y3308850D01*
X26067750Y3390600D01*
X25101793Y3390600D01*
X25038617Y3378034D01*
X24979107Y3353384D01*
X24925549Y3317597D01*
X24880002Y3272050D01*
X24880000Y3272047D01*
X24879998Y3272050D01*
X24834451Y3317597D01*
X24780893Y3353384D01*
X24721383Y3378034D01*
X24658207Y3390600D01*
X23692250Y3390600D01*
X23610500Y3308850D01*
X23609500Y3308850D01*
X23527750Y3390600D01*
X22561793Y3390600D01*
X22498617Y3378034D01*
X22439107Y3353384D01*
X22385549Y3317597D01*
X22340002Y3272050D01*
X22340000Y3272047D01*
X22339998Y3272050D01*
X22294451Y3317597D01*
X22240893Y3353384D01*
X22181383Y3378034D01*
X22118207Y3390600D01*
X21152250Y3390600D01*
X21070500Y3308850D01*
X21069500Y3308850D01*
X20987750Y3390600D01*
X20021793Y3390600D01*
X19958617Y3378034D01*
X19899107Y3353384D01*
X19845549Y3317597D01*
X19800002Y3272050D01*
X19800000Y3272047D01*
X19799998Y3272050D01*
X19754451Y3317597D01*
X19700893Y3353384D01*
X19641383Y3378034D01*
X19578207Y3390600D01*
X18612250Y3390600D01*
X18530500Y3308850D01*
X18529500Y3308850D01*
X18447750Y3390600D01*
X17481793Y3390600D01*
X17418617Y3378034D01*
X17359107Y3353384D01*
X17305549Y3317597D01*
X17260002Y3272050D01*
X17224216Y3218492D01*
X17199566Y3158982D01*
X17187000Y3095806D01*
X6050954Y3095806D01*
X6069050Y3175453D01*
X6077111Y3752688D01*
X5978949Y4248439D01*
X5786365Y4715682D01*
X5764686Y4748312D01*
X17180531Y4748312D01*
X17201591Y4516904D01*
X17267197Y4293993D01*
X17374850Y4088071D01*
X17520451Y3906981D01*
X17698452Y3757620D01*
X17902075Y3645677D01*
X18123562Y3575417D01*
X18354479Y3549516D01*
X18371102Y3549400D01*
X18688898Y3549400D01*
X18920153Y3572075D01*
X19142600Y3639235D01*
X19347766Y3748324D01*
X19527835Y3895185D01*
X19675950Y4074225D01*
X19786468Y4278624D01*
X19799413Y4320442D01*
X19807197Y4293993D01*
X19914850Y4088071D01*
X20060451Y3906981D01*
X20238452Y3757620D01*
X20442075Y3645677D01*
X20663562Y3575417D01*
X20894479Y3549516D01*
X20911102Y3549400D01*
X21228898Y3549400D01*
X21460153Y3572075D01*
X21682600Y3639235D01*
X21887766Y3748324D01*
X22067835Y3895185D01*
X22215950Y4074225D01*
X22326468Y4278624D01*
X22339413Y4320442D01*
X22347197Y4293993D01*
X22454850Y4088071D01*
X22600451Y3906981D01*
X22778452Y3757620D01*
X22982075Y3645677D01*
X23203562Y3575417D01*
X23434479Y3549516D01*
X23451102Y3549400D01*
X23768898Y3549400D01*
X24000153Y3572075D01*
X24222600Y3639235D01*
X24427766Y3748324D01*
X24607835Y3895185D01*
X24755950Y4074225D01*
X24866468Y4278624D01*
X24879413Y4320442D01*
X24887197Y4293993D01*
X24994850Y4088071D01*
X25140451Y3906981D01*
X25318452Y3757620D01*
X25522075Y3645677D01*
X25743562Y3575417D01*
X25974479Y3549516D01*
X25991102Y3549400D01*
X26308898Y3549400D01*
X26540153Y3572075D01*
X26762600Y3639235D01*
X26967766Y3748324D01*
X27147835Y3895185D01*
X27295950Y4074225D01*
X27406468Y4278624D01*
X27419413Y4320442D01*
X27427197Y4293993D01*
X27534850Y4088071D01*
X27680451Y3906981D01*
X27858452Y3757620D01*
X28062075Y3645677D01*
X28283562Y3575417D01*
X28514479Y3549516D01*
X28531102Y3549400D01*
X28848898Y3549400D01*
X29080153Y3572075D01*
X29302600Y3639235D01*
X29507766Y3748324D01*
X29687835Y3895185D01*
X29835950Y4074225D01*
X29946468Y4278624D01*
X29959413Y4320442D01*
X29967197Y4293993D01*
X30074850Y4088071D01*
X30220451Y3906981D01*
X30398452Y3757620D01*
X30602075Y3645677D01*
X30823562Y3575417D01*
X31054479Y3549516D01*
X31071102Y3549400D01*
X31388898Y3549400D01*
X31620153Y3572075D01*
X31842600Y3639235D01*
X32047766Y3748324D01*
X32227835Y3895185D01*
X32375950Y4074225D01*
X32486468Y4278624D01*
X32499413Y4320442D01*
X32507197Y4293993D01*
X32614850Y4088071D01*
X32760451Y3906981D01*
X32938452Y3757620D01*
X33142075Y3645677D01*
X33363562Y3575417D01*
X33594479Y3549516D01*
X33611102Y3549400D01*
X33928898Y3549400D01*
X34160153Y3572075D01*
X34382600Y3639235D01*
X34587766Y3748324D01*
X34767835Y3895185D01*
X34915950Y4074225D01*
X35026468Y4278624D01*
X35039413Y4320442D01*
X35047197Y4293993D01*
X35154850Y4088071D01*
X35300451Y3906981D01*
X35478452Y3757620D01*
X35682075Y3645677D01*
X35903562Y3575417D01*
X36134479Y3549516D01*
X36151102Y3549400D01*
X36468898Y3549400D01*
X36700153Y3572075D01*
X36922600Y3639235D01*
X37127766Y3748324D01*
X37307835Y3895185D01*
X37455950Y4074225D01*
X37566468Y4278624D01*
X37579413Y4320442D01*
X37587197Y4293993D01*
X37694850Y4088071D01*
X37840451Y3906981D01*
X38018452Y3757620D01*
X38222075Y3645677D01*
X38443562Y3575417D01*
X38674479Y3549516D01*
X38691102Y3549400D01*
X39008898Y3549400D01*
X39240153Y3572075D01*
X39462600Y3639235D01*
X39667766Y3748324D01*
X39847835Y3895185D01*
X39995950Y4074225D01*
X40106468Y4278624D01*
X40175180Y4500597D01*
X40199469Y4731688D01*
X40178409Y4963096D01*
X40112803Y5186007D01*
X40005150Y5391929D01*
X39859549Y5573019D01*
X39681548Y5722380D01*
X39477925Y5834323D01*
X39256438Y5904583D01*
X39025521Y5930484D01*
X39008898Y5930600D01*
X38691102Y5930600D01*
X38459847Y5907925D01*
X38237400Y5840765D01*
X38032234Y5731676D01*
X37852165Y5584815D01*
X37704050Y5405775D01*
X37593532Y5201376D01*
X37580587Y5159558D01*
X37572803Y5186007D01*
X37465150Y5391929D01*
X37319549Y5573019D01*
X37141548Y5722380D01*
X36937925Y5834323D01*
X36716438Y5904583D01*
X36485521Y5930484D01*
X36468898Y5930600D01*
X36151102Y5930600D01*
X35919847Y5907925D01*
X35697400Y5840765D01*
X35492234Y5731676D01*
X35312165Y5584815D01*
X35164050Y5405775D01*
X35053532Y5201376D01*
X35040587Y5159558D01*
X35032803Y5186007D01*
X34925150Y5391929D01*
X34779549Y5573019D01*
X34601548Y5722380D01*
X34397925Y5834323D01*
X34176438Y5904583D01*
X33945521Y5930484D01*
X33928898Y5930600D01*
X33611102Y5930600D01*
X33379847Y5907925D01*
X33157400Y5840765D01*
X32952234Y5731676D01*
X32772165Y5584815D01*
X32624050Y5405775D01*
X32513532Y5201376D01*
X32500587Y5159558D01*
X32492803Y5186007D01*
X32385150Y5391929D01*
X32239549Y5573019D01*
X32061548Y5722380D01*
X31857925Y5834323D01*
X31636438Y5904583D01*
X31405521Y5930484D01*
X31388898Y5930600D01*
X31071102Y5930600D01*
X30839847Y5907925D01*
X30617400Y5840765D01*
X30412234Y5731676D01*
X30232165Y5584815D01*
X30084050Y5405775D01*
X29973532Y5201376D01*
X29960587Y5159558D01*
X29952803Y5186007D01*
X29845150Y5391929D01*
X29699549Y5573019D01*
X29521548Y5722380D01*
X29317925Y5834323D01*
X29096438Y5904583D01*
X28865521Y5930484D01*
X28848898Y5930600D01*
X28531102Y5930600D01*
X28299847Y5907925D01*
X28077400Y5840765D01*
X27872234Y5731676D01*
X27692165Y5584815D01*
X27544050Y5405775D01*
X27433532Y5201376D01*
X27420587Y5159558D01*
X27412803Y5186007D01*
X27305150Y5391929D01*
X27159549Y5573019D01*
X26981548Y5722380D01*
X26777925Y5834323D01*
X26556438Y5904583D01*
X26325521Y5930484D01*
X26308898Y5930600D01*
X25991102Y5930600D01*
X25759847Y5907925D01*
X25537400Y5840765D01*
X25332234Y5731676D01*
X25152165Y5584815D01*
X25004050Y5405775D01*
X24893532Y5201376D01*
X24880587Y5159558D01*
X24872803Y5186007D01*
X24765150Y5391929D01*
X24619549Y5573019D01*
X24441548Y5722380D01*
X24237925Y5834323D01*
X24016438Y5904583D01*
X23785521Y5930484D01*
X23768898Y5930600D01*
X23451102Y5930600D01*
X23219847Y5907925D01*
X22997400Y5840765D01*
X22792234Y5731676D01*
X22612165Y5584815D01*
X22464050Y5405775D01*
X22353532Y5201376D01*
X22340587Y5159558D01*
X22332803Y5186007D01*
X22225150Y5391929D01*
X22079549Y5573019D01*
X21901548Y5722380D01*
X21697925Y5834323D01*
X21476438Y5904583D01*
X21245521Y5930484D01*
X21228898Y5930600D01*
X20911102Y5930600D01*
X20679847Y5907925D01*
X20457400Y5840765D01*
X20252234Y5731676D01*
X20072165Y5584815D01*
X19924050Y5405775D01*
X19813532Y5201376D01*
X19800587Y5159558D01*
X19792803Y5186007D01*
X19685150Y5391929D01*
X19539549Y5573019D01*
X19361548Y5722380D01*
X19157925Y5834323D01*
X18936438Y5904583D01*
X18705521Y5930484D01*
X18688898Y5930600D01*
X18371102Y5930600D01*
X18139847Y5907925D01*
X17917400Y5840765D01*
X17712234Y5731676D01*
X17532165Y5584815D01*
X17384050Y5405775D01*
X17273532Y5201376D01*
X17204820Y4979403D01*
X17180531Y4748312D01*
X5764686Y4748312D01*
X5506695Y5136620D01*
X5150590Y5495220D01*
X4731614Y5777823D01*
X4265727Y5973664D01*
X3770673Y6075284D01*
X3265310Y6078812D01*
X2768886Y5984114D01*
X2300309Y5794797D01*
X1877429Y5518072D01*
X1516352Y5164479D01*
X1230831Y4747486D01*
X1031742Y4282977D01*
X926669Y3788645D01*
X919613Y3283319D01*
X924856Y3254750D01*
X627000Y3552606D01*
X627000Y7288312D01*
X17180531Y7288312D01*
X17201591Y7056904D01*
X17267197Y6833993D01*
X17374850Y6628071D01*
X17520451Y6446981D01*
X17698452Y6297620D01*
X17902075Y6185677D01*
X18123562Y6115417D01*
X18354479Y6089516D01*
X18371102Y6089400D01*
X18688898Y6089400D01*
X18920153Y6112075D01*
X19142600Y6179235D01*
X19347766Y6288324D01*
X19527835Y6435185D01*
X19675950Y6614225D01*
X19786468Y6818624D01*
X19799413Y6860442D01*
X19807197Y6833993D01*
X19914850Y6628071D01*
X20060451Y6446981D01*
X20238452Y6297620D01*
X20442075Y6185677D01*
X20663562Y6115417D01*
X20894479Y6089516D01*
X20911102Y6089400D01*
X21228898Y6089400D01*
X21460153Y6112075D01*
X21682600Y6179235D01*
X21887766Y6288324D01*
X22067835Y6435185D01*
X22215950Y6614225D01*
X22326468Y6818624D01*
X22339413Y6860442D01*
X22347197Y6833993D01*
X22454850Y6628071D01*
X22600451Y6446981D01*
X22778452Y6297620D01*
X22982075Y6185677D01*
X23203562Y6115417D01*
X23434479Y6089516D01*
X23451102Y6089400D01*
X23768898Y6089400D01*
X24000153Y6112075D01*
X24222600Y6179235D01*
X24427766Y6288324D01*
X24607835Y6435185D01*
X24755950Y6614225D01*
X24866468Y6818624D01*
X24879413Y6860442D01*
X24887197Y6833993D01*
X24994850Y6628071D01*
X25140451Y6446981D01*
X25318452Y6297620D01*
X25522075Y6185677D01*
X25743562Y6115417D01*
X25974479Y6089516D01*
X25991102Y6089400D01*
X26308898Y6089400D01*
X26540153Y6112075D01*
X26762600Y6179235D01*
X26967766Y6288324D01*
X27147835Y6435185D01*
X27295950Y6614225D01*
X27406468Y6818624D01*
X27419413Y6860442D01*
X27427197Y6833993D01*
X27534850Y6628071D01*
X27680451Y6446981D01*
X27858452Y6297620D01*
X28062075Y6185677D01*
X28283562Y6115417D01*
X28514479Y6089516D01*
X28531102Y6089400D01*
X28848898Y6089400D01*
X29080153Y6112075D01*
X29302600Y6179235D01*
X29507766Y6288324D01*
X29687835Y6435185D01*
X29835950Y6614225D01*
X29946468Y6818624D01*
X29959413Y6860442D01*
X29967197Y6833993D01*
X30074850Y6628071D01*
X30220451Y6446981D01*
X30398452Y6297620D01*
X30602075Y6185677D01*
X30823562Y6115417D01*
X31054479Y6089516D01*
X31071102Y6089400D01*
X31388898Y6089400D01*
X31620153Y6112075D01*
X31842600Y6179235D01*
X32047766Y6288324D01*
X32227835Y6435185D01*
X32375950Y6614225D01*
X32486468Y6818624D01*
X32499413Y6860442D01*
X32507197Y6833993D01*
X32614850Y6628071D01*
X32760451Y6446981D01*
X32938452Y6297620D01*
X33142075Y6185677D01*
X33363562Y6115417D01*
X33594479Y6089516D01*
X33611102Y6089400D01*
X33928898Y6089400D01*
X34160153Y6112075D01*
X34382600Y6179235D01*
X34587766Y6288324D01*
X34767835Y6435185D01*
X34915950Y6614225D01*
X35026468Y6818624D01*
X35039413Y6860442D01*
X35047197Y6833993D01*
X35154850Y6628071D01*
X35300451Y6446981D01*
X35478452Y6297620D01*
X35682075Y6185677D01*
X35903562Y6115417D01*
X36134479Y6089516D01*
X36151102Y6089400D01*
X36468898Y6089400D01*
X36700153Y6112075D01*
X36922600Y6179235D01*
X37127766Y6288324D01*
X37307835Y6435185D01*
X37455950Y6614225D01*
X37566468Y6818624D01*
X37579413Y6860442D01*
X37587197Y6833993D01*
X37694850Y6628071D01*
X37840451Y6446981D01*
X38018452Y6297620D01*
X38222075Y6185677D01*
X38443562Y6115417D01*
X38674479Y6089516D01*
X38691102Y6089400D01*
X39008898Y6089400D01*
X39240153Y6112075D01*
X39462600Y6179235D01*
X39667766Y6288324D01*
X39847835Y6435185D01*
X39995950Y6614225D01*
X40106468Y6818624D01*
X40175180Y7040597D01*
X40199469Y7271688D01*
X40178409Y7503096D01*
X40112803Y7726007D01*
X40005150Y7931929D01*
X39859549Y8113019D01*
X39681548Y8262380D01*
X39477925Y8374323D01*
X39256438Y8444583D01*
X39025521Y8470484D01*
X39008898Y8470600D01*
X38691102Y8470600D01*
X38459847Y8447925D01*
X38237400Y8380765D01*
X38032234Y8271676D01*
X37852165Y8124815D01*
X37704050Y7945775D01*
X37593532Y7741376D01*
X37580587Y7699558D01*
X37572803Y7726007D01*
X37465150Y7931929D01*
X37319549Y8113019D01*
X37141548Y8262380D01*
X36937925Y8374323D01*
X36716438Y8444583D01*
X36485521Y8470484D01*
X36468898Y8470600D01*
X36151102Y8470600D01*
X35919847Y8447925D01*
X35697400Y8380765D01*
X35492234Y8271676D01*
X35312165Y8124815D01*
X35164050Y7945775D01*
X35053532Y7741376D01*
X35040587Y7699558D01*
X35032803Y7726007D01*
X34925150Y7931929D01*
X34779549Y8113019D01*
X34601548Y8262380D01*
X34397925Y8374323D01*
X34176438Y8444583D01*
X33945521Y8470484D01*
X33928898Y8470600D01*
X33611102Y8470600D01*
X33379847Y8447925D01*
X33157400Y8380765D01*
X32952234Y8271676D01*
X32772165Y8124815D01*
X32624050Y7945775D01*
X32513532Y7741376D01*
X32500587Y7699558D01*
X32492803Y7726007D01*
X32385150Y7931929D01*
X32239549Y8113019D01*
X32061548Y8262380D01*
X31857925Y8374323D01*
X31636438Y8444583D01*
X31405521Y8470484D01*
X31388898Y8470600D01*
X31071102Y8470600D01*
X30839847Y8447925D01*
X30617400Y8380765D01*
X30412234Y8271676D01*
X30232165Y8124815D01*
X30084050Y7945775D01*
X29973532Y7741376D01*
X29960587Y7699558D01*
X29952803Y7726007D01*
X29845150Y7931929D01*
X29699549Y8113019D01*
X29521548Y8262380D01*
X29317925Y8374323D01*
X29096438Y8444583D01*
X28865521Y8470484D01*
X28848898Y8470600D01*
X28531102Y8470600D01*
X28299847Y8447925D01*
X28077400Y8380765D01*
X27872234Y8271676D01*
X27692165Y8124815D01*
X27544050Y7945775D01*
X27433532Y7741376D01*
X27420587Y7699558D01*
X27412803Y7726007D01*
X27305150Y7931929D01*
X27159549Y8113019D01*
X26981548Y8262380D01*
X26777925Y8374323D01*
X26556438Y8444583D01*
X26325521Y8470484D01*
X26308898Y8470600D01*
X25991102Y8470600D01*
X25759847Y8447925D01*
X25537400Y8380765D01*
X25332234Y8271676D01*
X25152165Y8124815D01*
X25004050Y7945775D01*
X24893532Y7741376D01*
X24880587Y7699558D01*
X24872803Y7726007D01*
X24765150Y7931929D01*
X24619549Y8113019D01*
X24441548Y8262380D01*
X24237925Y8374323D01*
X24016438Y8444583D01*
X23785521Y8470484D01*
X23768898Y8470600D01*
X23451102Y8470600D01*
X23219847Y8447925D01*
X22997400Y8380765D01*
X22792234Y8271676D01*
X22612165Y8124815D01*
X22464050Y7945775D01*
X22353532Y7741376D01*
X22340587Y7699558D01*
X22332803Y7726007D01*
X22225150Y7931929D01*
X22079549Y8113019D01*
X21901548Y8262380D01*
X21697925Y8374323D01*
X21476438Y8444583D01*
X21245521Y8470484D01*
X21228898Y8470600D01*
X20911102Y8470600D01*
X20679847Y8447925D01*
X20457400Y8380765D01*
X20252234Y8271676D01*
X20072165Y8124815D01*
X19924050Y7945775D01*
X19813532Y7741376D01*
X19800587Y7699558D01*
X19792803Y7726007D01*
X19685150Y7931929D01*
X19539549Y8113019D01*
X19361548Y8262380D01*
X19157925Y8374323D01*
X18936438Y8444583D01*
X18705521Y8470484D01*
X18688898Y8470600D01*
X18371102Y8470600D01*
X18139847Y8447925D01*
X17917400Y8380765D01*
X17712234Y8271676D01*
X17532165Y8124815D01*
X17384050Y7945775D01*
X17273532Y7741376D01*
X17204820Y7519403D01*
X17180531Y7288312D01*
X627000Y7288312D01*
X627000Y26447394D01*
X926080Y26746474D01*
X919613Y26283319D01*
X1010843Y25786246D01*
X1196884Y25316359D01*
X1470650Y24891557D01*
X1821714Y24528020D01*
X2236703Y24239595D01*
X2699810Y24037269D01*
X3193397Y23928747D01*
X3698662Y23918163D01*
X4196360Y24005920D01*
X4667533Y24188677D01*
X5094236Y24459471D01*
X5460215Y24807988D01*
X5751530Y25220953D01*
X5957085Y25682637D01*
X6069050Y26175453D01*
X6077111Y26752688D01*
X5978949Y27248439D01*
X5801302Y27679443D01*
X7291584Y27679443D01*
X7329712Y27471702D01*
X7407464Y27275324D01*
X7521878Y27097787D01*
X7668598Y26945855D01*
X7842033Y26825314D01*
X8035578Y26740756D01*
X8241862Y26695402D01*
X8436425Y26691327D01*
X8424732Y26636314D01*
X8421400Y26397671D01*
X8438115Y26306597D01*
X8271916Y26307757D01*
X8064447Y26268180D01*
X7868616Y26189059D01*
X7691882Y26073408D01*
X7540978Y25925632D01*
X7421651Y25751359D01*
X7338447Y25557228D01*
X7294533Y25350633D01*
X7291584Y25139443D01*
X7329712Y24931702D01*
X7407464Y24735324D01*
X7521878Y24557787D01*
X7668598Y24405855D01*
X7842033Y24285314D01*
X8035578Y24200756D01*
X8241862Y24155402D01*
X8453026Y24150979D01*
X8661028Y24187655D01*
X8741794Y24218982D01*
X14280387Y18680388D01*
X14312669Y18653872D01*
X14344635Y18627049D01*
X14346715Y18625905D01*
X14348554Y18624395D01*
X14385382Y18604648D01*
X14421938Y18584551D01*
X14424202Y18583833D01*
X14426298Y18582709D01*
X14466200Y18570510D01*
X14506024Y18557877D01*
X14508390Y18557612D01*
X14510659Y18556918D01*
X14552142Y18552704D01*
X14593689Y18548044D01*
X14598337Y18548012D01*
X14598422Y18548003D01*
X14598501Y18548010D01*
X14600000Y18548000D01*
X17564821Y18548000D01*
X17591662Y18520205D01*
X17692632Y18450029D01*
X17805309Y18400802D01*
X17925401Y18374398D01*
X18048336Y18371823D01*
X18169429Y18393175D01*
X18284068Y18437641D01*
X18387888Y18503526D01*
X18476933Y18588323D01*
X18547811Y18688800D01*
X18597824Y18801130D01*
X18625066Y18921036D01*
X18627027Y19061481D01*
X18603144Y19182100D01*
X18556287Y19295783D01*
X18488241Y19398200D01*
X18401599Y19485450D01*
X18299659Y19554209D01*
X18186306Y19601858D01*
X18065856Y19626583D01*
X17942898Y19627441D01*
X17822115Y19604400D01*
X17708108Y19558338D01*
X17605218Y19491009D01*
X17565383Y19452000D01*
X14787225Y19452000D01*
X9382694Y24856530D01*
X9396884Y24888401D01*
X9443677Y25094363D01*
X9446499Y25296422D01*
X9495205Y25285713D01*
X9733819Y25280715D01*
X9833803Y25298345D01*
X9831584Y25139443D01*
X9869712Y24931702D01*
X9947464Y24735324D01*
X10061878Y24557787D01*
X10208598Y24405855D01*
X10382033Y24285314D01*
X10575578Y24200756D01*
X10781862Y24155402D01*
X10993026Y24150979D01*
X11201028Y24187655D01*
X11397945Y24264034D01*
X11576276Y24377206D01*
X11729228Y24522861D01*
X11850977Y24695451D01*
X11936884Y24888401D01*
X11983677Y25094363D01*
X11984306Y25139443D01*
X12371584Y25139443D01*
X12409712Y24931702D01*
X12487464Y24735324D01*
X12601878Y24557787D01*
X12748598Y24405855D01*
X12922033Y24285314D01*
X13115578Y24200756D01*
X13321862Y24155402D01*
X13533026Y24150979D01*
X13741028Y24187655D01*
X13937945Y24264034D01*
X14116276Y24377206D01*
X14269228Y24522861D01*
X14390977Y24695451D01*
X14476884Y24888401D01*
X14523677Y25094363D01*
X14524306Y25139443D01*
X14911584Y25139443D01*
X14949712Y24931702D01*
X15027464Y24735324D01*
X15141878Y24557787D01*
X15288598Y24405855D01*
X15462033Y24285314D01*
X15655578Y24200756D01*
X15861862Y24155402D01*
X16073026Y24150979D01*
X16281028Y24187655D01*
X16361794Y24218982D01*
X17900388Y22680388D01*
X17932644Y22653892D01*
X17964635Y22627049D01*
X17966715Y22625905D01*
X17968554Y22624395D01*
X18005382Y22604648D01*
X18041938Y22584551D01*
X18044202Y22583833D01*
X18046298Y22582709D01*
X18086200Y22570510D01*
X18126024Y22557877D01*
X18128390Y22557612D01*
X18130659Y22556918D01*
X18172142Y22552704D01*
X18213689Y22548044D01*
X18218337Y22548012D01*
X18218422Y22548003D01*
X18218501Y22548010D01*
X18220000Y22548000D01*
X19812776Y22548000D01*
X24872745Y17488030D01*
X24872176Y17447280D01*
X24894372Y17326339D01*
X24939637Y17212013D01*
X25006246Y17108656D01*
X25091662Y17020205D01*
X25192632Y16950029D01*
X25305309Y16900802D01*
X25425401Y16874398D01*
X25548336Y16871823D01*
X25669429Y16893175D01*
X25784068Y16937641D01*
X25887888Y17003526D01*
X25976933Y17088323D01*
X26047811Y17188800D01*
X26097824Y17301130D01*
X26125066Y17421036D01*
X26127027Y17561481D01*
X26103144Y17682100D01*
X26056287Y17795783D01*
X25988241Y17898200D01*
X25901599Y17985450D01*
X25799659Y18054209D01*
X25686306Y18101858D01*
X25565856Y18126583D01*
X25512268Y18126957D01*
X20319612Y23319612D01*
X20287356Y23346108D01*
X20255365Y23372951D01*
X20253285Y23374095D01*
X20251446Y23375605D01*
X20214637Y23395342D01*
X20178062Y23415449D01*
X20175795Y23416168D01*
X20173701Y23417291D01*
X20133814Y23429485D01*
X20093976Y23442123D01*
X20091610Y23442388D01*
X20089341Y23443082D01*
X20047813Y23447301D01*
X20006311Y23451956D01*
X20001673Y23451988D01*
X20001578Y23451998D01*
X20001489Y23451990D01*
X20000000Y23452000D01*
X18407224Y23452000D01*
X17337010Y24522214D01*
X17822921Y24522214D01*
X17894297Y24354179D01*
X18077376Y24246988D01*
X18277849Y24177574D01*
X18488013Y24148604D01*
X18699789Y24161191D01*
X18905041Y24214852D01*
X19095880Y24307525D01*
X19165703Y24354179D01*
X19237079Y24522214D01*
X18530000Y25229293D01*
X17822921Y24522214D01*
X17337010Y24522214D01*
X17002694Y24856530D01*
X17016884Y24888401D01*
X17063677Y25094363D01*
X17066157Y25271987D01*
X17448604Y25271987D01*
X17461191Y25060211D01*
X17514852Y24854959D01*
X17607525Y24664120D01*
X17654179Y24594297D01*
X17822214Y24522921D01*
X18529293Y25230000D01*
X18530707Y25230000D01*
X19237786Y24522921D01*
X19405821Y24594297D01*
X19513012Y24777376D01*
X19582426Y24977849D01*
X19611396Y25188013D01*
X19598809Y25399789D01*
X19545148Y25605041D01*
X19452475Y25795880D01*
X19405821Y25865703D01*
X19237786Y25937079D01*
X18530707Y25230000D01*
X18529293Y25230000D01*
X17822214Y25937079D01*
X17654179Y25865703D01*
X17546988Y25682624D01*
X17477574Y25482151D01*
X17448604Y25271987D01*
X17066157Y25271987D01*
X17067046Y25335605D01*
X17026022Y25542793D01*
X16945536Y25738067D01*
X16828653Y25913989D01*
X16805022Y25937786D01*
X17822921Y25937786D01*
X18530000Y25230707D01*
X19237079Y25937786D01*
X19165703Y26105821D01*
X18982624Y26213012D01*
X18782151Y26282426D01*
X18571987Y26311396D01*
X18360211Y26298809D01*
X18154959Y26245148D01*
X17964120Y26152475D01*
X17894297Y26105821D01*
X17822921Y25937786D01*
X16805022Y25937786D01*
X16679827Y26063858D01*
X16504726Y26181965D01*
X16310019Y26263813D01*
X16103122Y26306283D01*
X15891916Y26307757D01*
X15684447Y26268180D01*
X15488616Y26189059D01*
X15311882Y26073408D01*
X15160978Y25925632D01*
X15041651Y25751359D01*
X14958447Y25557228D01*
X14914533Y25350633D01*
X14911584Y25139443D01*
X14524306Y25139443D01*
X14527046Y25335605D01*
X14486022Y25542793D01*
X14405536Y25738067D01*
X14288653Y25913989D01*
X14139827Y26063858D01*
X13964726Y26181965D01*
X13770019Y26263813D01*
X13563122Y26306283D01*
X13351916Y26307757D01*
X13144447Y26268180D01*
X12948616Y26189059D01*
X12771882Y26073408D01*
X12620978Y25925632D01*
X12501651Y25751359D01*
X12418447Y25557228D01*
X12374533Y25350633D01*
X12371584Y25139443D01*
X11984306Y25139443D01*
X11987046Y25335605D01*
X11946022Y25542793D01*
X11865536Y25738067D01*
X11748653Y25913989D01*
X11599827Y26063858D01*
X11424726Y26181965D01*
X11230019Y26263813D01*
X11023122Y26306283D01*
X10844340Y26307531D01*
X10853246Y26346731D01*
X10857053Y26619333D01*
X10842241Y26694137D01*
X10993026Y26690979D01*
X11201028Y26727655D01*
X11397945Y26804034D01*
X11576276Y26917206D01*
X11728548Y27062214D01*
X12742921Y27062214D01*
X12814297Y26894179D01*
X12997376Y26786988D01*
X13197849Y26717574D01*
X13408013Y26688604D01*
X13619789Y26701191D01*
X13825041Y26754852D01*
X14015880Y26847525D01*
X14085703Y26894179D01*
X14157079Y27062214D01*
X13450000Y27769293D01*
X12742921Y27062214D01*
X11728548Y27062214D01*
X11729228Y27062861D01*
X11850977Y27235451D01*
X11936884Y27428401D01*
X11983677Y27634363D01*
X11986157Y27811987D01*
X12368604Y27811987D01*
X12381191Y27600211D01*
X12434852Y27394959D01*
X12527525Y27204120D01*
X12574179Y27134297D01*
X12742214Y27062921D01*
X13449293Y27770000D01*
X13450707Y27770000D01*
X14157786Y27062921D01*
X14325821Y27134297D01*
X14433012Y27317376D01*
X14502426Y27517849D01*
X14524700Y27679443D01*
X14911584Y27679443D01*
X14949712Y27471702D01*
X15027464Y27275324D01*
X15141878Y27097787D01*
X15288598Y26945855D01*
X15462033Y26825314D01*
X15655578Y26740756D01*
X15861862Y26695402D01*
X16073026Y26690979D01*
X16281028Y26727655D01*
X16477945Y26804034D01*
X16656276Y26917206D01*
X16809228Y27062861D01*
X16930977Y27235451D01*
X17016884Y27428401D01*
X17063677Y27634363D01*
X17064306Y27679443D01*
X17451584Y27679443D01*
X17489712Y27471702D01*
X17567464Y27275324D01*
X17681878Y27097787D01*
X17828598Y26945855D01*
X18002033Y26825314D01*
X18195578Y26740756D01*
X18401862Y26695402D01*
X18613026Y26690979D01*
X18821028Y26727655D01*
X19017945Y26804034D01*
X19196276Y26917206D01*
X19349228Y27062861D01*
X19470977Y27235451D01*
X19556884Y27428401D01*
X19603677Y27634363D01*
X19604306Y27679443D01*
X19991584Y27679443D01*
X20029712Y27471702D01*
X20107464Y27275324D01*
X20221878Y27097787D01*
X20368598Y26945855D01*
X20542033Y26825314D01*
X20735578Y26740756D01*
X20941862Y26695402D01*
X21153026Y26690979D01*
X21361028Y26727655D01*
X21441794Y26758982D01*
X22082999Y26117777D01*
X22082999Y25598651D01*
X22025536Y25738067D01*
X21908653Y25913989D01*
X21759827Y26063858D01*
X21584726Y26181965D01*
X21390019Y26263813D01*
X21183122Y26306283D01*
X20971916Y26307757D01*
X20764447Y26268180D01*
X20568616Y26189059D01*
X20391882Y26073408D01*
X20240978Y25925632D01*
X20121651Y25751359D01*
X20038447Y25557228D01*
X19994533Y25350633D01*
X19991584Y25139443D01*
X20029712Y24931702D01*
X20107464Y24735324D01*
X20221878Y24557787D01*
X20368598Y24405855D01*
X20542033Y24285314D01*
X20735578Y24200756D01*
X20941862Y24155402D01*
X21153026Y24150979D01*
X21361028Y24187655D01*
X21557945Y24264034D01*
X21736276Y24377206D01*
X21889228Y24522861D01*
X22010977Y24695451D01*
X22082999Y24857215D01*
X22082999Y23965001D01*
X22087070Y23923483D01*
X22090712Y23881855D01*
X22091375Y23879573D01*
X22091607Y23877207D01*
X22103675Y23837237D01*
X22115323Y23797143D01*
X22116417Y23795033D01*
X22117104Y23792757D01*
X22136700Y23755904D01*
X22155920Y23718824D01*
X22157404Y23716965D01*
X22158519Y23714868D01*
X22184886Y23682538D01*
X22210955Y23649882D01*
X22214215Y23646577D01*
X22214273Y23646506D01*
X22214339Y23646451D01*
X22215387Y23645389D01*
X28622745Y17238030D01*
X28622176Y17197280D01*
X28644372Y17076339D01*
X28689637Y16962013D01*
X28756246Y16858656D01*
X28841662Y16770205D01*
X28942632Y16700029D01*
X29055309Y16650802D01*
X29175401Y16624398D01*
X29298336Y16621823D01*
X29419429Y16643175D01*
X29534068Y16687641D01*
X29637888Y16753526D01*
X29726933Y16838323D01*
X29797811Y16938800D01*
X29847824Y17051130D01*
X29875066Y17171036D01*
X29877027Y17311481D01*
X29853144Y17432100D01*
X29806287Y17545783D01*
X29738241Y17648200D01*
X29651599Y17735450D01*
X29549659Y17804209D01*
X29436306Y17851858D01*
X29315856Y17876583D01*
X29262268Y17876957D01*
X22986999Y24152225D01*
X22986999Y24351365D01*
X23082033Y24285314D01*
X23275578Y24200756D01*
X23481862Y24155402D01*
X23693026Y24150979D01*
X23901028Y24187655D01*
X24097945Y24264034D01*
X24276276Y24377206D01*
X24429228Y24522861D01*
X24550977Y24695451D01*
X24636884Y24888401D01*
X24683677Y25094363D01*
X24684306Y25139443D01*
X25071584Y25139443D01*
X25109712Y24931702D01*
X25187464Y24735324D01*
X25301878Y24557787D01*
X25448598Y24405855D01*
X25622033Y24285314D01*
X25815578Y24200756D01*
X26021862Y24155402D01*
X26233026Y24150979D01*
X26441028Y24187655D01*
X26637945Y24264034D01*
X26816276Y24377206D01*
X26969228Y24522861D01*
X27090977Y24695451D01*
X27176884Y24888401D01*
X27223677Y25094363D01*
X27224306Y25139443D01*
X27611584Y25139443D01*
X27649712Y24931702D01*
X27727464Y24735324D01*
X27841878Y24557787D01*
X27988598Y24405855D01*
X28162033Y24285314D01*
X28355578Y24200756D01*
X28561862Y24155402D01*
X28773026Y24150979D01*
X28981028Y24187655D01*
X29177945Y24264034D01*
X29356276Y24377206D01*
X29509228Y24522861D01*
X29630977Y24695451D01*
X29716884Y24888401D01*
X29763677Y25094363D01*
X29764306Y25139443D01*
X30151584Y25139443D01*
X30189712Y24931702D01*
X30267464Y24735324D01*
X30381878Y24557787D01*
X30528598Y24405855D01*
X30702033Y24285314D01*
X30895578Y24200756D01*
X31101862Y24155402D01*
X31313026Y24150979D01*
X31521028Y24187655D01*
X31717945Y24264034D01*
X31896276Y24377206D01*
X32049228Y24522861D01*
X32170977Y24695451D01*
X32256884Y24888401D01*
X32303677Y25094363D01*
X32304306Y25139443D01*
X32691584Y25139443D01*
X32729712Y24931702D01*
X32807464Y24735324D01*
X32921878Y24557787D01*
X33068598Y24405855D01*
X33242033Y24285314D01*
X33435578Y24200756D01*
X33641862Y24155402D01*
X33853026Y24150979D01*
X34061028Y24187655D01*
X34257945Y24264034D01*
X34436276Y24377206D01*
X34589228Y24522861D01*
X34710977Y24695451D01*
X34796884Y24888401D01*
X34843677Y25094363D01*
X34847046Y25335605D01*
X34806022Y25542793D01*
X34725536Y25738067D01*
X34608653Y25913989D01*
X34459827Y26063858D01*
X34284726Y26181965D01*
X34090019Y26263813D01*
X33883122Y26306283D01*
X33671916Y26307757D01*
X33464447Y26268180D01*
X33268616Y26189059D01*
X33091882Y26073408D01*
X32940978Y25925632D01*
X32821651Y25751359D01*
X32738447Y25557228D01*
X32694533Y25350633D01*
X32691584Y25139443D01*
X32304306Y25139443D01*
X32307046Y25335605D01*
X32266022Y25542793D01*
X32185536Y25738067D01*
X32068653Y25913989D01*
X31919827Y26063858D01*
X31744726Y26181965D01*
X31550019Y26263813D01*
X31343122Y26306283D01*
X31131916Y26307757D01*
X30924447Y26268180D01*
X30728616Y26189059D01*
X30551882Y26073408D01*
X30400978Y25925632D01*
X30281651Y25751359D01*
X30198447Y25557228D01*
X30154533Y25350633D01*
X30151584Y25139443D01*
X29764306Y25139443D01*
X29767046Y25335605D01*
X29726022Y25542793D01*
X29645536Y25738067D01*
X29528653Y25913989D01*
X29379827Y26063858D01*
X29204726Y26181965D01*
X29010019Y26263813D01*
X28803122Y26306283D01*
X28591916Y26307757D01*
X28384447Y26268180D01*
X28188616Y26189059D01*
X28011882Y26073408D01*
X27860978Y25925632D01*
X27741651Y25751359D01*
X27658447Y25557228D01*
X27614533Y25350633D01*
X27611584Y25139443D01*
X27224306Y25139443D01*
X27227046Y25335605D01*
X27186022Y25542793D01*
X27105536Y25738067D01*
X26988653Y25913989D01*
X26839827Y26063858D01*
X26664726Y26181965D01*
X26470019Y26263813D01*
X26263122Y26306283D01*
X26051916Y26307757D01*
X25844447Y26268180D01*
X25648616Y26189059D01*
X25471882Y26073408D01*
X25320978Y25925632D01*
X25201651Y25751359D01*
X25118447Y25557228D01*
X25074533Y25350633D01*
X25071584Y25139443D01*
X24684306Y25139443D01*
X24687046Y25335605D01*
X24646022Y25542793D01*
X24565536Y25738067D01*
X24448653Y25913989D01*
X24299827Y26063858D01*
X24124726Y26181965D01*
X23930019Y26263813D01*
X23723122Y26306283D01*
X23511916Y26307757D01*
X23304447Y26268180D01*
X23108616Y26189059D01*
X22986999Y26109475D01*
X22986999Y26305001D01*
X22982928Y26346523D01*
X22979286Y26388147D01*
X22978623Y26390429D01*
X22978391Y26392795D01*
X22966323Y26432765D01*
X22954675Y26472859D01*
X22953581Y26474969D01*
X22952894Y26477245D01*
X22933298Y26514098D01*
X22914078Y26551178D01*
X22912594Y26553037D01*
X22911479Y26555134D01*
X22885092Y26587488D01*
X22859043Y26620119D01*
X22855784Y26623423D01*
X22855725Y26623496D01*
X22855658Y26623552D01*
X22854611Y26624613D01*
X22417010Y27062214D01*
X22902921Y27062214D01*
X22974297Y26894179D01*
X23157376Y26786988D01*
X23357849Y26717574D01*
X23568013Y26688604D01*
X23779789Y26701191D01*
X23985041Y26754852D01*
X24175880Y26847525D01*
X24245703Y26894179D01*
X24317079Y27062214D01*
X23610000Y27769293D01*
X22902921Y27062214D01*
X22417010Y27062214D01*
X22082694Y27396530D01*
X22096884Y27428401D01*
X22143677Y27634363D01*
X22146157Y27811987D01*
X22528604Y27811987D01*
X22541191Y27600211D01*
X22594852Y27394959D01*
X22687525Y27204120D01*
X22734179Y27134297D01*
X22902214Y27062921D01*
X23609293Y27770000D01*
X23610707Y27770000D01*
X24317786Y27062921D01*
X24485821Y27134297D01*
X24593012Y27317376D01*
X24662426Y27517849D01*
X24684700Y27679443D01*
X25071584Y27679443D01*
X25109712Y27471702D01*
X25187464Y27275324D01*
X25301878Y27097787D01*
X25448598Y26945855D01*
X25622033Y26825314D01*
X25815578Y26740756D01*
X26021862Y26695402D01*
X26233026Y26690979D01*
X26441028Y26727655D01*
X26637945Y26804034D01*
X26816276Y26917206D01*
X26969228Y27062861D01*
X27090977Y27235451D01*
X27176884Y27428401D01*
X27223677Y27634363D01*
X27224306Y27679443D01*
X27611584Y27679443D01*
X27649712Y27471702D01*
X27727464Y27275324D01*
X27841878Y27097787D01*
X27988598Y26945855D01*
X28162033Y26825314D01*
X28355578Y26740756D01*
X28561862Y26695402D01*
X28773026Y26690979D01*
X28981028Y26727655D01*
X29177945Y26804034D01*
X29356276Y26917206D01*
X29508548Y27062214D01*
X30522921Y27062214D01*
X30594297Y26894179D01*
X30777376Y26786988D01*
X30977849Y26717574D01*
X31188013Y26688604D01*
X31399789Y26701191D01*
X31605041Y26754852D01*
X31795880Y26847525D01*
X31865703Y26894179D01*
X31937079Y27062214D01*
X31230000Y27769293D01*
X30522921Y27062214D01*
X29508548Y27062214D01*
X29509228Y27062861D01*
X29630977Y27235451D01*
X29716884Y27428401D01*
X29763677Y27634363D01*
X29766157Y27811987D01*
X30148604Y27811987D01*
X30161191Y27600211D01*
X30214852Y27394959D01*
X30307525Y27204120D01*
X30354179Y27134297D01*
X30522214Y27062921D01*
X31229293Y27770000D01*
X31230707Y27770000D01*
X31937786Y27062921D01*
X32105821Y27134297D01*
X32213012Y27317376D01*
X32282426Y27517849D01*
X32304700Y27679443D01*
X32691584Y27679443D01*
X32729712Y27471702D01*
X32807464Y27275324D01*
X32921878Y27097787D01*
X33068598Y26945855D01*
X33242033Y26825314D01*
X33435578Y26740756D01*
X33641862Y26695402D01*
X33853026Y26690979D01*
X34061028Y26727655D01*
X34257945Y26804034D01*
X34436276Y26917206D01*
X34589228Y27062861D01*
X34710977Y27235451D01*
X34796884Y27428401D01*
X34843677Y27634363D01*
X34844306Y27679443D01*
X35231584Y27679443D01*
X35269712Y27471702D01*
X35347464Y27275324D01*
X35461878Y27097787D01*
X35608598Y26945855D01*
X35782033Y26825314D01*
X35975578Y26740756D01*
X36181862Y26695402D01*
X36376425Y26691327D01*
X36364732Y26636314D01*
X36361400Y26397671D01*
X36378115Y26306597D01*
X36211916Y26307757D01*
X36004447Y26268180D01*
X35808616Y26189059D01*
X35631882Y26073408D01*
X35480978Y25925632D01*
X35361651Y25751359D01*
X35278447Y25557228D01*
X35234533Y25350633D01*
X35231584Y25139443D01*
X35269712Y24931702D01*
X35347464Y24735324D01*
X35461878Y24557787D01*
X35608598Y24405855D01*
X35782033Y24285314D01*
X35975578Y24200756D01*
X36181862Y24155402D01*
X36393026Y24150979D01*
X36601028Y24187655D01*
X36797945Y24264034D01*
X36976276Y24377206D01*
X37128548Y24522214D01*
X38142921Y24522214D01*
X38214297Y24354179D01*
X38397376Y24246988D01*
X38597849Y24177574D01*
X38808013Y24148604D01*
X39019789Y24161191D01*
X39225041Y24214852D01*
X39415880Y24307525D01*
X39485703Y24354179D01*
X39557079Y24522214D01*
X38850000Y25229293D01*
X38142921Y24522214D01*
X37128548Y24522214D01*
X37129228Y24522861D01*
X37250977Y24695451D01*
X37336884Y24888401D01*
X37383677Y25094363D01*
X37386499Y25296422D01*
X37435205Y25285713D01*
X37673819Y25280715D01*
X37772198Y25298062D01*
X37768604Y25271987D01*
X37781191Y25060211D01*
X37834852Y24854959D01*
X37927525Y24664120D01*
X37974179Y24594297D01*
X38142214Y24522921D01*
X38849293Y25230000D01*
X38850707Y25230000D01*
X39557786Y24522921D01*
X39725821Y24594297D01*
X39833012Y24777376D01*
X39902426Y24977849D01*
X39931396Y25188013D01*
X39918809Y25399789D01*
X39865148Y25605041D01*
X39772475Y25795880D01*
X39725821Y25865703D01*
X39557786Y25937079D01*
X38850707Y25230000D01*
X38849293Y25230000D01*
X38835151Y25244142D01*
X38835858Y25244849D01*
X38850000Y25230707D01*
X39557079Y25937786D01*
X39485703Y26105821D01*
X39302624Y26213012D01*
X39102151Y26282426D01*
X38891987Y26311396D01*
X38783757Y26304963D01*
X38793246Y26346731D01*
X38797053Y26619333D01*
X38782241Y26694137D01*
X38933026Y26690979D01*
X39141028Y26727655D01*
X39337945Y26804034D01*
X39516276Y26917206D01*
X39669228Y27062861D01*
X39790977Y27235451D01*
X39876884Y27428401D01*
X39923677Y27634363D01*
X39927046Y27875605D01*
X39886022Y28082793D01*
X39805536Y28278067D01*
X39688653Y28453989D01*
X39539827Y28603858D01*
X39364726Y28721965D01*
X39170019Y28803813D01*
X38963122Y28846283D01*
X38751916Y28847757D01*
X38544447Y28808180D01*
X38348616Y28729059D01*
X38171882Y28613408D01*
X38020978Y28465632D01*
X37901651Y28291359D01*
X37818447Y28097228D01*
X37774533Y27890633D01*
X37771913Y27703035D01*
X37707827Y27716190D01*
X37469166Y27717856D01*
X37384618Y27701728D01*
X37387046Y27875605D01*
X37346022Y28082793D01*
X37265536Y28278067D01*
X37148653Y28453989D01*
X36999827Y28603858D01*
X36824726Y28721965D01*
X36630019Y28803813D01*
X36423122Y28846283D01*
X36211916Y28847757D01*
X36004447Y28808180D01*
X35808616Y28729059D01*
X35631882Y28613408D01*
X35480978Y28465632D01*
X35361651Y28291359D01*
X35278447Y28097228D01*
X35234533Y27890633D01*
X35231584Y27679443D01*
X34844306Y27679443D01*
X34847046Y27875605D01*
X34806022Y28082793D01*
X34725536Y28278067D01*
X34608653Y28453989D01*
X34459827Y28603858D01*
X34284726Y28721965D01*
X34090019Y28803813D01*
X33883122Y28846283D01*
X33671916Y28847757D01*
X33464447Y28808180D01*
X33268616Y28729059D01*
X33091882Y28613408D01*
X32940978Y28465632D01*
X32821651Y28291359D01*
X32738447Y28097228D01*
X32694533Y27890633D01*
X32691584Y27679443D01*
X32304700Y27679443D01*
X32311396Y27728013D01*
X32298809Y27939789D01*
X32245148Y28145041D01*
X32152475Y28335880D01*
X32105821Y28405703D01*
X31937786Y28477079D01*
X31230707Y27770000D01*
X31229293Y27770000D01*
X30522214Y28477079D01*
X30354179Y28405703D01*
X30246988Y28222624D01*
X30177574Y28022151D01*
X30148604Y27811987D01*
X29766157Y27811987D01*
X29767046Y27875605D01*
X29726022Y28082793D01*
X29645536Y28278067D01*
X29528653Y28453989D01*
X29505022Y28477786D01*
X30522921Y28477786D01*
X31230000Y27770707D01*
X31937079Y28477786D01*
X31865703Y28645821D01*
X31682624Y28753012D01*
X31482151Y28822426D01*
X31271987Y28851396D01*
X31060211Y28838809D01*
X30854959Y28785148D01*
X30664120Y28692475D01*
X30594297Y28645821D01*
X30522921Y28477786D01*
X29505022Y28477786D01*
X29379827Y28603858D01*
X29204726Y28721965D01*
X29010019Y28803813D01*
X28803122Y28846283D01*
X28591916Y28847757D01*
X28384447Y28808180D01*
X28188616Y28729059D01*
X28011882Y28613408D01*
X27860978Y28465632D01*
X27741651Y28291359D01*
X27658447Y28097228D01*
X27614533Y27890633D01*
X27611584Y27679443D01*
X27224306Y27679443D01*
X27227046Y27875605D01*
X27186022Y28082793D01*
X27105536Y28278067D01*
X26988653Y28453989D01*
X26839827Y28603858D01*
X26664726Y28721965D01*
X26470019Y28803813D01*
X26263122Y28846283D01*
X26051916Y28847757D01*
X25844447Y28808180D01*
X25648616Y28729059D01*
X25471882Y28613408D01*
X25320978Y28465632D01*
X25201651Y28291359D01*
X25118447Y28097228D01*
X25074533Y27890633D01*
X25071584Y27679443D01*
X24684700Y27679443D01*
X24691396Y27728013D01*
X24678809Y27939789D01*
X24625148Y28145041D01*
X24532475Y28335880D01*
X24485821Y28405703D01*
X24317786Y28477079D01*
X23610707Y27770000D01*
X23609293Y27770000D01*
X22902214Y28477079D01*
X22734179Y28405703D01*
X22626988Y28222624D01*
X22557574Y28022151D01*
X22528604Y27811987D01*
X22146157Y27811987D01*
X22147046Y27875605D01*
X22106022Y28082793D01*
X22025536Y28278067D01*
X21908653Y28453989D01*
X21885022Y28477786D01*
X22902921Y28477786D01*
X23610000Y27770707D01*
X24317079Y28477786D01*
X24245703Y28645821D01*
X24062624Y28753012D01*
X23862151Y28822426D01*
X23651987Y28851396D01*
X23440211Y28838809D01*
X23234959Y28785148D01*
X23044120Y28692475D01*
X22974297Y28645821D01*
X22902921Y28477786D01*
X21885022Y28477786D01*
X21759827Y28603858D01*
X21584726Y28721965D01*
X21390019Y28803813D01*
X21183122Y28846283D01*
X20971916Y28847757D01*
X20764447Y28808180D01*
X20568616Y28729059D01*
X20391882Y28613408D01*
X20240978Y28465632D01*
X20121651Y28291359D01*
X20038447Y28097228D01*
X19994533Y27890633D01*
X19991584Y27679443D01*
X19604306Y27679443D01*
X19607046Y27875605D01*
X19566022Y28082793D01*
X19485536Y28278067D01*
X19368653Y28453989D01*
X19219827Y28603858D01*
X19044726Y28721965D01*
X18850019Y28803813D01*
X18643122Y28846283D01*
X18431916Y28847757D01*
X18224447Y28808180D01*
X18028616Y28729059D01*
X17851882Y28613408D01*
X17700978Y28465632D01*
X17581651Y28291359D01*
X17498447Y28097228D01*
X17454533Y27890633D01*
X17451584Y27679443D01*
X17064306Y27679443D01*
X17067046Y27875605D01*
X17026022Y28082793D01*
X16945536Y28278067D01*
X16828653Y28453989D01*
X16679827Y28603858D01*
X16504726Y28721965D01*
X16310019Y28803813D01*
X16103122Y28846283D01*
X15891916Y28847757D01*
X15684447Y28808180D01*
X15488616Y28729059D01*
X15311882Y28613408D01*
X15160978Y28465632D01*
X15041651Y28291359D01*
X14958447Y28097228D01*
X14914533Y27890633D01*
X14911584Y27679443D01*
X14524700Y27679443D01*
X14531396Y27728013D01*
X14518809Y27939789D01*
X14465148Y28145041D01*
X14372475Y28335880D01*
X14325821Y28405703D01*
X14157786Y28477079D01*
X13450707Y27770000D01*
X13449293Y27770000D01*
X12742214Y28477079D01*
X12574179Y28405703D01*
X12466988Y28222624D01*
X12397574Y28022151D01*
X12368604Y27811987D01*
X11986157Y27811987D01*
X11987046Y27875605D01*
X11946022Y28082793D01*
X11865536Y28278067D01*
X11748653Y28453989D01*
X11725022Y28477786D01*
X12742921Y28477786D01*
X13450000Y27770707D01*
X14157079Y28477786D01*
X14085703Y28645821D01*
X13902624Y28753012D01*
X13702151Y28822426D01*
X13491987Y28851396D01*
X13280211Y28838809D01*
X13074959Y28785148D01*
X12884120Y28692475D01*
X12814297Y28645821D01*
X12742921Y28477786D01*
X11725022Y28477786D01*
X11599827Y28603858D01*
X11424726Y28721965D01*
X11230019Y28803813D01*
X11023122Y28846283D01*
X10811916Y28847757D01*
X10604447Y28808180D01*
X10408616Y28729059D01*
X10231882Y28613408D01*
X10080978Y28465632D01*
X9961651Y28291359D01*
X9878447Y28097228D01*
X9834533Y27890633D01*
X9831913Y27703035D01*
X9767827Y27716190D01*
X9529166Y27717856D01*
X9444618Y27701728D01*
X9447046Y27875605D01*
X9406022Y28082793D01*
X9325536Y28278067D01*
X9208653Y28453989D01*
X9059827Y28603858D01*
X8884726Y28721965D01*
X8690019Y28803813D01*
X8483122Y28846283D01*
X8271916Y28847757D01*
X8064447Y28808180D01*
X7868616Y28729059D01*
X7691882Y28613408D01*
X7540978Y28465632D01*
X7421651Y28291359D01*
X7338447Y28097228D01*
X7294533Y27890633D01*
X7291584Y27679443D01*
X5801302Y27679443D01*
X5786365Y27715682D01*
X5506695Y28136620D01*
X5150590Y28495220D01*
X4731614Y28777823D01*
X4265727Y28973664D01*
X3770673Y29075284D01*
X3265310Y29078812D01*
X3256793Y29077187D01*
X3552606Y29373000D01*
X40447394Y29373000D01*
X43373000Y26447394D01*
X43373000Y26447394D01*
G37*
X43373000Y26447394D02*
X43373000Y3552606D01*
X40447394Y627000D01*
X3552606Y627000D01*
X3252088Y927518D01*
X3698662Y918163D01*
X4196360Y1005920D01*
X4667533Y1188677D01*
X5094236Y1459471D01*
X5460215Y1807988D01*
X5678728Y2117750D01*
X17187000Y2117750D01*
X17187000Y1304194D01*
X17199566Y1241018D01*
X17224216Y1181508D01*
X17260002Y1127950D01*
X17305549Y1082403D01*
X17359107Y1046616D01*
X17418617Y1021966D01*
X17481793Y1009400D01*
X18447750Y1009400D01*
X18529500Y1091150D01*
X18529500Y2199500D01*
X18530500Y2199500D01*
X18530500Y1091150D01*
X18612250Y1009400D01*
X19578207Y1009400D01*
X19641383Y1021966D01*
X19700893Y1046616D01*
X19754451Y1082403D01*
X19799998Y1127950D01*
X19800000Y1127953D01*
X19800002Y1127950D01*
X19845549Y1082403D01*
X19899107Y1046616D01*
X19958617Y1021966D01*
X20021793Y1009400D01*
X20987750Y1009400D01*
X21069500Y1091150D01*
X21069500Y2199500D01*
X21070500Y2199500D01*
X21070500Y1091150D01*
X21152250Y1009400D01*
X22118207Y1009400D01*
X22181383Y1021966D01*
X22240893Y1046616D01*
X22294451Y1082403D01*
X22339998Y1127950D01*
X22340000Y1127953D01*
X22340002Y1127950D01*
X22385549Y1082403D01*
X22439107Y1046616D01*
X22498617Y1021966D01*
X22561793Y1009400D01*
X23527750Y1009400D01*
X23609500Y1091150D01*
X23609500Y2199500D01*
X23610500Y2199500D01*
X23610500Y1091150D01*
X23692250Y1009400D01*
X24658207Y1009400D01*
X24721383Y1021966D01*
X24780893Y1046616D01*
X24834451Y1082403D01*
X24879998Y1127950D01*
X24880000Y1127953D01*
X24880002Y1127950D01*
X24925549Y1082403D01*
X24979107Y1046616D01*
X25038617Y1021966D01*
X25101793Y1009400D01*
X26067750Y1009400D01*
X26149500Y1091150D01*
X26149500Y2199500D01*
X26150500Y2199500D01*
X26150500Y1091150D01*
X26232250Y1009400D01*
X27198207Y1009400D01*
X27261383Y1021966D01*
X27320893Y1046616D01*
X27374451Y1082403D01*
X27419998Y1127950D01*
X27420000Y1127953D01*
X27420002Y1127950D01*
X27465549Y1082403D01*
X27519107Y1046616D01*
X27578617Y1021966D01*
X27641793Y1009400D01*
X28607750Y1009400D01*
X28689500Y1091150D01*
X28689500Y2199500D01*
X28690500Y2199500D01*
X28690500Y1091150D01*
X28772250Y1009400D01*
X29738207Y1009400D01*
X29801383Y1021966D01*
X29860893Y1046616D01*
X29914451Y1082403D01*
X29959998Y1127950D01*
X29960000Y1127953D01*
X29960002Y1127950D01*
X30005549Y1082403D01*
X30059107Y1046616D01*
X30118617Y1021966D01*
X30181793Y1009400D01*
X31147750Y1009400D01*
X31229500Y1091150D01*
X31229500Y2199500D01*
X31230500Y2199500D01*
X31230500Y1091150D01*
X31312250Y1009400D01*
X32278207Y1009400D01*
X32341383Y1021966D01*
X32400893Y1046616D01*
X32454451Y1082403D01*
X32499998Y1127950D01*
X32500000Y1127953D01*
X32500002Y1127950D01*
X32545549Y1082403D01*
X32599107Y1046616D01*
X32658617Y1021966D01*
X32721793Y1009400D01*
X33687750Y1009400D01*
X33769500Y1091150D01*
X33769500Y2199500D01*
X33770500Y2199500D01*
X33770500Y1091150D01*
X33852250Y1009400D01*
X34818207Y1009400D01*
X34881383Y1021966D01*
X34940893Y1046616D01*
X34994451Y1082403D01*
X35039998Y1127950D01*
X35040000Y1127953D01*
X35040002Y1127950D01*
X35085549Y1082403D01*
X35139107Y1046616D01*
X35198617Y1021966D01*
X35261793Y1009400D01*
X36227750Y1009400D01*
X36309500Y1091150D01*
X36309500Y2199500D01*
X36310500Y2199500D01*
X36310500Y1091150D01*
X36392250Y1009400D01*
X37358207Y1009400D01*
X37421383Y1021966D01*
X37480893Y1046616D01*
X37534451Y1082403D01*
X37579998Y1127950D01*
X37580000Y1127953D01*
X37580002Y1127950D01*
X37625549Y1082403D01*
X37679107Y1046616D01*
X37738617Y1021966D01*
X37801793Y1009400D01*
X38767750Y1009400D01*
X38849500Y1091150D01*
X38849500Y2199500D01*
X38850500Y2199500D01*
X38850500Y1091150D01*
X38932250Y1009400D01*
X39898207Y1009400D01*
X39961383Y1021966D01*
X40020893Y1046616D01*
X40074451Y1082403D01*
X40119998Y1127950D01*
X40155784Y1181508D01*
X40180434Y1241018D01*
X40193000Y1304194D01*
X40193000Y2117750D01*
X40111250Y2199500D01*
X38850500Y2199500D01*
X38849500Y2199500D01*
X37588750Y2199500D01*
X37580000Y2190750D01*
X37571250Y2199500D01*
X36310500Y2199500D01*
X36309500Y2199500D01*
X35048750Y2199500D01*
X35040000Y2190750D01*
X35031250Y2199500D01*
X33770500Y2199500D01*
X33769500Y2199500D01*
X32508750Y2199500D01*
X32500000Y2190750D01*
X32491250Y2199500D01*
X31230500Y2199500D01*
X31229500Y2199500D01*
X29968750Y2199500D01*
X29960000Y2190750D01*
X29951250Y2199500D01*
X28690500Y2199500D01*
X28689500Y2199500D01*
X27428750Y2199500D01*
X27420000Y2190750D01*
X27411250Y2199500D01*
X26150500Y2199500D01*
X26149500Y2199500D01*
X24888750Y2199500D01*
X24880000Y2190750D01*
X24871250Y2199500D01*
X23610500Y2199500D01*
X23609500Y2199500D01*
X22348750Y2199500D01*
X22340000Y2190750D01*
X22331250Y2199500D01*
X21070500Y2199500D01*
X21069500Y2199500D01*
X19808750Y2199500D01*
X19800000Y2190750D01*
X19791250Y2199500D01*
X18530500Y2199500D01*
X18529500Y2199500D01*
X17268750Y2199500D01*
X17187000Y2117750D01*
X5678728Y2117750D01*
X5751530Y2220953D01*
X5957085Y2682637D01*
X6050954Y3095806D01*
X17187000Y3095806D01*
X17187000Y2282250D01*
X17268750Y2200500D01*
X18529500Y2200500D01*
X18529500Y3308850D01*
X18530500Y3308850D01*
X18530500Y2200500D01*
X19791250Y2200500D01*
X19800000Y2209250D01*
X19808750Y2200500D01*
X21069500Y2200500D01*
X21069500Y3308850D01*
X21070500Y3308850D01*
X21070500Y2200500D01*
X22331250Y2200500D01*
X22340000Y2209250D01*
X22348750Y2200500D01*
X23609500Y2200500D01*
X23609500Y3308850D01*
X23610500Y3308850D01*
X23610500Y2200500D01*
X24871250Y2200500D01*
X24880000Y2209250D01*
X24888750Y2200500D01*
X26149500Y2200500D01*
X26149500Y3308850D01*
X26150500Y3308850D01*
X26150500Y2200500D01*
X27411250Y2200500D01*
X27420000Y2209250D01*
X27428750Y2200500D01*
X28689500Y2200500D01*
X28689500Y3308850D01*
X28690500Y3308850D01*
X28690500Y2200500D01*
X29951250Y2200500D01*
X29960000Y2209250D01*
X29968750Y2200500D01*
X31229500Y2200500D01*
X31229500Y3308850D01*
X31230500Y3308850D01*
X31230500Y2200500D01*
X32491250Y2200500D01*
X32500000Y2209250D01*
X32508750Y2200500D01*
X33769500Y2200500D01*
X33769500Y3308850D01*
X33770500Y3308850D01*
X33770500Y2200500D01*
X35031250Y2200500D01*
X35040000Y2209250D01*
X35048750Y2200500D01*
X36309500Y2200500D01*
X36309500Y3308850D01*
X36310500Y3308850D01*
X36310500Y2200500D01*
X37571250Y2200500D01*
X37580000Y2209250D01*
X37588750Y2200500D01*
X38849500Y2200500D01*
X38849500Y3308850D01*
X38850500Y3308850D01*
X38850500Y2200500D01*
X40111250Y2200500D01*
X40193000Y2282250D01*
X40193000Y3095806D01*
X40180434Y3158982D01*
X40155784Y3218492D01*
X40119998Y3272050D01*
X40074451Y3317597D01*
X40020893Y3353384D01*
X39961383Y3378034D01*
X39898207Y3390600D01*
X38932250Y3390600D01*
X38850500Y3308850D01*
X38849500Y3308850D01*
X38767750Y3390600D01*
X37801793Y3390600D01*
X37738617Y3378034D01*
X37679107Y3353384D01*
X37625549Y3317597D01*
X37580002Y3272050D01*
X37580000Y3272047D01*
X37579998Y3272050D01*
X37534451Y3317597D01*
X37480893Y3353384D01*
X37421383Y3378034D01*
X37358207Y3390600D01*
X36392250Y3390600D01*
X36310500Y3308850D01*
X36309500Y3308850D01*
X36227750Y3390600D01*
X35261793Y3390600D01*
X35198617Y3378034D01*
X35139107Y3353384D01*
X35085549Y3317597D01*
X35040002Y3272050D01*
X35040000Y3272047D01*
X35039998Y3272050D01*
X34994451Y3317597D01*
X34940893Y3353384D01*
X34881383Y3378034D01*
X34818207Y3390600D01*
X33852250Y3390600D01*
X33770500Y3308850D01*
X33769500Y3308850D01*
X33687750Y3390600D01*
X32721793Y3390600D01*
X32658617Y3378034D01*
X32599107Y3353384D01*
X32545549Y3317597D01*
X32500002Y3272050D01*
X32500000Y3272047D01*
X32499998Y3272050D01*
X32454451Y3317597D01*
X32400893Y3353384D01*
X32341383Y3378034D01*
X32278207Y3390600D01*
X31312250Y3390600D01*
X31230500Y3308850D01*
X31229500Y3308850D01*
X31147750Y3390600D01*
X30181793Y3390600D01*
X30118617Y3378034D01*
X30059107Y3353384D01*
X30005549Y3317597D01*
X29960002Y3272050D01*
X29960000Y3272047D01*
X29959998Y3272050D01*
X29914451Y3317597D01*
X29860893Y3353384D01*
X29801383Y3378034D01*
X29738207Y3390600D01*
X28772250Y3390600D01*
X28690500Y3308850D01*
X28689500Y3308850D01*
X28607750Y3390600D01*
X27641793Y3390600D01*
X27578617Y3378034D01*
X27519107Y3353384D01*
X27465549Y3317597D01*
X27420002Y3272050D01*
X27420000Y3272047D01*
X27419998Y3272050D01*
X27374451Y3317597D01*
X27320893Y3353384D01*
X27261383Y3378034D01*
X27198207Y3390600D01*
X26232250Y3390600D01*
X26150500Y3308850D01*
X26149500Y3308850D01*
X26067750Y3390600D01*
X25101793Y3390600D01*
X25038617Y3378034D01*
X24979107Y3353384D01*
X24925549Y3317597D01*
X24880002Y3272050D01*
X24880000Y3272047D01*
X24879998Y3272050D01*
X24834451Y3317597D01*
X24780893Y3353384D01*
X24721383Y3378034D01*
X24658207Y3390600D01*
X23692250Y3390600D01*
X23610500Y3308850D01*
X23609500Y3308850D01*
X23527750Y3390600D01*
X22561793Y3390600D01*
X22498617Y3378034D01*
X22439107Y3353384D01*
X22385549Y3317597D01*
X22340002Y3272050D01*
X22340000Y3272047D01*
X22339998Y3272050D01*
X22294451Y3317597D01*
X22240893Y3353384D01*
X22181383Y3378034D01*
X22118207Y3390600D01*
X21152250Y3390600D01*
X21070500Y3308850D01*
X21069500Y3308850D01*
X20987750Y3390600D01*
X20021793Y3390600D01*
X19958617Y3378034D01*
X19899107Y3353384D01*
X19845549Y3317597D01*
X19800002Y3272050D01*
X19800000Y3272047D01*
X19799998Y3272050D01*
X19754451Y3317597D01*
X19700893Y3353384D01*
X19641383Y3378034D01*
X19578207Y3390600D01*
X18612250Y3390600D01*
X18530500Y3308850D01*
X18529500Y3308850D01*
X18447750Y3390600D01*
X17481793Y3390600D01*
X17418617Y3378034D01*
X17359107Y3353384D01*
X17305549Y3317597D01*
X17260002Y3272050D01*
X17224216Y3218492D01*
X17199566Y3158982D01*
X17187000Y3095806D01*
X6050954Y3095806D01*
X6069050Y3175453D01*
X6077111Y3752688D01*
X5978949Y4248439D01*
X5786365Y4715682D01*
X5764686Y4748312D01*
X17180531Y4748312D01*
X17201591Y4516904D01*
X17267197Y4293993D01*
X17374850Y4088071D01*
X17520451Y3906981D01*
X17698452Y3757620D01*
X17902075Y3645677D01*
X18123562Y3575417D01*
X18354479Y3549516D01*
X18371102Y3549400D01*
X18688898Y3549400D01*
X18920153Y3572075D01*
X19142600Y3639235D01*
X19347766Y3748324D01*
X19527835Y3895185D01*
X19675950Y4074225D01*
X19786468Y4278624D01*
X19799413Y4320442D01*
X19807197Y4293993D01*
X19914850Y4088071D01*
X20060451Y3906981D01*
X20238452Y3757620D01*
X20442075Y3645677D01*
X20663562Y3575417D01*
X20894479Y3549516D01*
X20911102Y3549400D01*
X21228898Y3549400D01*
X21460153Y3572075D01*
X21682600Y3639235D01*
X21887766Y3748324D01*
X22067835Y3895185D01*
X22215950Y4074225D01*
X22326468Y4278624D01*
X22339413Y4320442D01*
X22347197Y4293993D01*
X22454850Y4088071D01*
X22600451Y3906981D01*
X22778452Y3757620D01*
X22982075Y3645677D01*
X23203562Y3575417D01*
X23434479Y3549516D01*
X23451102Y3549400D01*
X23768898Y3549400D01*
X24000153Y3572075D01*
X24222600Y3639235D01*
X24427766Y3748324D01*
X24607835Y3895185D01*
X24755950Y4074225D01*
X24866468Y4278624D01*
X24879413Y4320442D01*
X24887197Y4293993D01*
X24994850Y4088071D01*
X25140451Y3906981D01*
X25318452Y3757620D01*
X25522075Y3645677D01*
X25743562Y3575417D01*
X25974479Y3549516D01*
X25991102Y3549400D01*
X26308898Y3549400D01*
X26540153Y3572075D01*
X26762600Y3639235D01*
X26967766Y3748324D01*
X27147835Y3895185D01*
X27295950Y4074225D01*
X27406468Y4278624D01*
X27419413Y4320442D01*
X27427197Y4293993D01*
X27534850Y4088071D01*
X27680451Y3906981D01*
X27858452Y3757620D01*
X28062075Y3645677D01*
X28283562Y3575417D01*
X28514479Y3549516D01*
X28531102Y3549400D01*
X28848898Y3549400D01*
X29080153Y3572075D01*
X29302600Y3639235D01*
X29507766Y3748324D01*
X29687835Y3895185D01*
X29835950Y4074225D01*
X29946468Y4278624D01*
X29959413Y4320442D01*
X29967197Y4293993D01*
X30074850Y4088071D01*
X30220451Y3906981D01*
X30398452Y3757620D01*
X30602075Y3645677D01*
X30823562Y3575417D01*
X31054479Y3549516D01*
X31071102Y3549400D01*
X31388898Y3549400D01*
X31620153Y3572075D01*
X31842600Y3639235D01*
X32047766Y3748324D01*
X32227835Y3895185D01*
X32375950Y4074225D01*
X32486468Y4278624D01*
X32499413Y4320442D01*
X32507197Y4293993D01*
X32614850Y4088071D01*
X32760451Y3906981D01*
X32938452Y3757620D01*
X33142075Y3645677D01*
X33363562Y3575417D01*
X33594479Y3549516D01*
X33611102Y3549400D01*
X33928898Y3549400D01*
X34160153Y3572075D01*
X34382600Y3639235D01*
X34587766Y3748324D01*
X34767835Y3895185D01*
X34915950Y4074225D01*
X35026468Y4278624D01*
X35039413Y4320442D01*
X35047197Y4293993D01*
X35154850Y4088071D01*
X35300451Y3906981D01*
X35478452Y3757620D01*
X35682075Y3645677D01*
X35903562Y3575417D01*
X36134479Y3549516D01*
X36151102Y3549400D01*
X36468898Y3549400D01*
X36700153Y3572075D01*
X36922600Y3639235D01*
X37127766Y3748324D01*
X37307835Y3895185D01*
X37455950Y4074225D01*
X37566468Y4278624D01*
X37579413Y4320442D01*
X37587197Y4293993D01*
X37694850Y4088071D01*
X37840451Y3906981D01*
X38018452Y3757620D01*
X38222075Y3645677D01*
X38443562Y3575417D01*
X38674479Y3549516D01*
X38691102Y3549400D01*
X39008898Y3549400D01*
X39240153Y3572075D01*
X39462600Y3639235D01*
X39667766Y3748324D01*
X39847835Y3895185D01*
X39995950Y4074225D01*
X40106468Y4278624D01*
X40175180Y4500597D01*
X40199469Y4731688D01*
X40178409Y4963096D01*
X40112803Y5186007D01*
X40005150Y5391929D01*
X39859549Y5573019D01*
X39681548Y5722380D01*
X39477925Y5834323D01*
X39256438Y5904583D01*
X39025521Y5930484D01*
X39008898Y5930600D01*
X38691102Y5930600D01*
X38459847Y5907925D01*
X38237400Y5840765D01*
X38032234Y5731676D01*
X37852165Y5584815D01*
X37704050Y5405775D01*
X37593532Y5201376D01*
X37580587Y5159558D01*
X37572803Y5186007D01*
X37465150Y5391929D01*
X37319549Y5573019D01*
X37141548Y5722380D01*
X36937925Y5834323D01*
X36716438Y5904583D01*
X36485521Y5930484D01*
X36468898Y5930600D01*
X36151102Y5930600D01*
X35919847Y5907925D01*
X35697400Y5840765D01*
X35492234Y5731676D01*
X35312165Y5584815D01*
X35164050Y5405775D01*
X35053532Y5201376D01*
X35040587Y5159558D01*
X35032803Y5186007D01*
X34925150Y5391929D01*
X34779549Y5573019D01*
X34601548Y5722380D01*
X34397925Y5834323D01*
X34176438Y5904583D01*
X33945521Y5930484D01*
X33928898Y5930600D01*
X33611102Y5930600D01*
X33379847Y5907925D01*
X33157400Y5840765D01*
X32952234Y5731676D01*
X32772165Y5584815D01*
X32624050Y5405775D01*
X32513532Y5201376D01*
X32500587Y5159558D01*
X32492803Y5186007D01*
X32385150Y5391929D01*
X32239549Y5573019D01*
X32061548Y5722380D01*
X31857925Y5834323D01*
X31636438Y5904583D01*
X31405521Y5930484D01*
X31388898Y5930600D01*
X31071102Y5930600D01*
X30839847Y5907925D01*
X30617400Y5840765D01*
X30412234Y5731676D01*
X30232165Y5584815D01*
X30084050Y5405775D01*
X29973532Y5201376D01*
X29960587Y5159558D01*
X29952803Y5186007D01*
X29845150Y5391929D01*
X29699549Y5573019D01*
X29521548Y5722380D01*
X29317925Y5834323D01*
X29096438Y5904583D01*
X28865521Y5930484D01*
X28848898Y5930600D01*
X28531102Y5930600D01*
X28299847Y5907925D01*
X28077400Y5840765D01*
X27872234Y5731676D01*
X27692165Y5584815D01*
X27544050Y5405775D01*
X27433532Y5201376D01*
X27420587Y5159558D01*
X27412803Y5186007D01*
X27305150Y5391929D01*
X27159549Y5573019D01*
X26981548Y5722380D01*
X26777925Y5834323D01*
X26556438Y5904583D01*
X26325521Y5930484D01*
X26308898Y5930600D01*
X25991102Y5930600D01*
X25759847Y5907925D01*
X25537400Y5840765D01*
X25332234Y5731676D01*
X25152165Y5584815D01*
X25004050Y5405775D01*
X24893532Y5201376D01*
X24880587Y5159558D01*
X24872803Y5186007D01*
X24765150Y5391929D01*
X24619549Y5573019D01*
X24441548Y5722380D01*
X24237925Y5834323D01*
X24016438Y5904583D01*
X23785521Y5930484D01*
X23768898Y5930600D01*
X23451102Y5930600D01*
X23219847Y5907925D01*
X22997400Y5840765D01*
X22792234Y5731676D01*
X22612165Y5584815D01*
X22464050Y5405775D01*
X22353532Y5201376D01*
X22340587Y5159558D01*
X22332803Y5186007D01*
X22225150Y5391929D01*
X22079549Y5573019D01*
X21901548Y5722380D01*
X21697925Y5834323D01*
X21476438Y5904583D01*
X21245521Y5930484D01*
X21228898Y5930600D01*
X20911102Y5930600D01*
X20679847Y5907925D01*
X20457400Y5840765D01*
X20252234Y5731676D01*
X20072165Y5584815D01*
X19924050Y5405775D01*
X19813532Y5201376D01*
X19800587Y5159558D01*
X19792803Y5186007D01*
X19685150Y5391929D01*
X19539549Y5573019D01*
X19361548Y5722380D01*
X19157925Y5834323D01*
X18936438Y5904583D01*
X18705521Y5930484D01*
X18688898Y5930600D01*
X18371102Y5930600D01*
X18139847Y5907925D01*
X17917400Y5840765D01*
X17712234Y5731676D01*
X17532165Y5584815D01*
X17384050Y5405775D01*
X17273532Y5201376D01*
X17204820Y4979403D01*
X17180531Y4748312D01*
X5764686Y4748312D01*
X5506695Y5136620D01*
X5150590Y5495220D01*
X4731614Y5777823D01*
X4265727Y5973664D01*
X3770673Y6075284D01*
X3265310Y6078812D01*
X2768886Y5984114D01*
X2300309Y5794797D01*
X1877429Y5518072D01*
X1516352Y5164479D01*
X1230831Y4747486D01*
X1031742Y4282977D01*
X926669Y3788645D01*
X919613Y3283319D01*
X924856Y3254750D01*
X627000Y3552606D01*
X627000Y7288312D01*
X17180531Y7288312D01*
X17201591Y7056904D01*
X17267197Y6833993D01*
X17374850Y6628071D01*
X17520451Y6446981D01*
X17698452Y6297620D01*
X17902075Y6185677D01*
X18123562Y6115417D01*
X18354479Y6089516D01*
X18371102Y6089400D01*
X18688898Y6089400D01*
X18920153Y6112075D01*
X19142600Y6179235D01*
X19347766Y6288324D01*
X19527835Y6435185D01*
X19675950Y6614225D01*
X19786468Y6818624D01*
X19799413Y6860442D01*
X19807197Y6833993D01*
X19914850Y6628071D01*
X20060451Y6446981D01*
X20238452Y6297620D01*
X20442075Y6185677D01*
X20663562Y6115417D01*
X20894479Y6089516D01*
X20911102Y6089400D01*
X21228898Y6089400D01*
X21460153Y6112075D01*
X21682600Y6179235D01*
X21887766Y6288324D01*
X22067835Y6435185D01*
X22215950Y6614225D01*
X22326468Y6818624D01*
X22339413Y6860442D01*
X22347197Y6833993D01*
X22454850Y6628071D01*
X22600451Y6446981D01*
X22778452Y6297620D01*
X22982075Y6185677D01*
X23203562Y6115417D01*
X23434479Y6089516D01*
X23451102Y6089400D01*
X23768898Y6089400D01*
X24000153Y6112075D01*
X24222600Y6179235D01*
X24427766Y6288324D01*
X24607835Y6435185D01*
X24755950Y6614225D01*
X24866468Y6818624D01*
X24879413Y6860442D01*
X24887197Y6833993D01*
X24994850Y6628071D01*
X25140451Y6446981D01*
X25318452Y6297620D01*
X25522075Y6185677D01*
X25743562Y6115417D01*
X25974479Y6089516D01*
X25991102Y6089400D01*
X26308898Y6089400D01*
X26540153Y6112075D01*
X26762600Y6179235D01*
X26967766Y6288324D01*
X27147835Y6435185D01*
X27295950Y6614225D01*
X27406468Y6818624D01*
X27419413Y6860442D01*
X27427197Y6833993D01*
X27534850Y6628071D01*
X27680451Y6446981D01*
X27858452Y6297620D01*
X28062075Y6185677D01*
X28283562Y6115417D01*
X28514479Y6089516D01*
X28531102Y6089400D01*
X28848898Y6089400D01*
X29080153Y6112075D01*
X29302600Y6179235D01*
X29507766Y6288324D01*
X29687835Y6435185D01*
X29835950Y6614225D01*
X29946468Y6818624D01*
X29959413Y6860442D01*
X29967197Y6833993D01*
X30074850Y6628071D01*
X30220451Y6446981D01*
X30398452Y6297620D01*
X30602075Y6185677D01*
X30823562Y6115417D01*
X31054479Y6089516D01*
X31071102Y6089400D01*
X31388898Y6089400D01*
X31620153Y6112075D01*
X31842600Y6179235D01*
X32047766Y6288324D01*
X32227835Y6435185D01*
X32375950Y6614225D01*
X32486468Y6818624D01*
X32499413Y6860442D01*
X32507197Y6833993D01*
X32614850Y6628071D01*
X32760451Y6446981D01*
X32938452Y6297620D01*
X33142075Y6185677D01*
X33363562Y6115417D01*
X33594479Y6089516D01*
X33611102Y6089400D01*
X33928898Y6089400D01*
X34160153Y6112075D01*
X34382600Y6179235D01*
X34587766Y6288324D01*
X34767835Y6435185D01*
X34915950Y6614225D01*
X35026468Y6818624D01*
X35039413Y6860442D01*
X35047197Y6833993D01*
X35154850Y6628071D01*
X35300451Y6446981D01*
X35478452Y6297620D01*
X35682075Y6185677D01*
X35903562Y6115417D01*
X36134479Y6089516D01*
X36151102Y6089400D01*
X36468898Y6089400D01*
X36700153Y6112075D01*
X36922600Y6179235D01*
X37127766Y6288324D01*
X37307835Y6435185D01*
X37455950Y6614225D01*
X37566468Y6818624D01*
X37579413Y6860442D01*
X37587197Y6833993D01*
X37694850Y6628071D01*
X37840451Y6446981D01*
X38018452Y6297620D01*
X38222075Y6185677D01*
X38443562Y6115417D01*
X38674479Y6089516D01*
X38691102Y6089400D01*
X39008898Y6089400D01*
X39240153Y6112075D01*
X39462600Y6179235D01*
X39667766Y6288324D01*
X39847835Y6435185D01*
X39995950Y6614225D01*
X40106468Y6818624D01*
X40175180Y7040597D01*
X40199469Y7271688D01*
X40178409Y7503096D01*
X40112803Y7726007D01*
X40005150Y7931929D01*
X39859549Y8113019D01*
X39681548Y8262380D01*
X39477925Y8374323D01*
X39256438Y8444583D01*
X39025521Y8470484D01*
X39008898Y8470600D01*
X38691102Y8470600D01*
X38459847Y8447925D01*
X38237400Y8380765D01*
X38032234Y8271676D01*
X37852165Y8124815D01*
X37704050Y7945775D01*
X37593532Y7741376D01*
X37580587Y7699558D01*
X37572803Y7726007D01*
X37465150Y7931929D01*
X37319549Y8113019D01*
X37141548Y8262380D01*
X36937925Y8374323D01*
X36716438Y8444583D01*
X36485521Y8470484D01*
X36468898Y8470600D01*
X36151102Y8470600D01*
X35919847Y8447925D01*
X35697400Y8380765D01*
X35492234Y8271676D01*
X35312165Y8124815D01*
X35164050Y7945775D01*
X35053532Y7741376D01*
X35040587Y7699558D01*
X35032803Y7726007D01*
X34925150Y7931929D01*
X34779549Y8113019D01*
X34601548Y8262380D01*
X34397925Y8374323D01*
X34176438Y8444583D01*
X33945521Y8470484D01*
X33928898Y8470600D01*
X33611102Y8470600D01*
X33379847Y8447925D01*
X33157400Y8380765D01*
X32952234Y8271676D01*
X32772165Y8124815D01*
X32624050Y7945775D01*
X32513532Y7741376D01*
X32500587Y7699558D01*
X32492803Y7726007D01*
X32385150Y7931929D01*
X32239549Y8113019D01*
X32061548Y8262380D01*
X31857925Y8374323D01*
X31636438Y8444583D01*
X31405521Y8470484D01*
X31388898Y8470600D01*
X31071102Y8470600D01*
X30839847Y8447925D01*
X30617400Y8380765D01*
X30412234Y8271676D01*
X30232165Y8124815D01*
X30084050Y7945775D01*
X29973532Y7741376D01*
X29960587Y7699558D01*
X29952803Y7726007D01*
X29845150Y7931929D01*
X29699549Y8113019D01*
X29521548Y8262380D01*
X29317925Y8374323D01*
X29096438Y8444583D01*
X28865521Y8470484D01*
X28848898Y8470600D01*
X28531102Y8470600D01*
X28299847Y8447925D01*
X28077400Y8380765D01*
X27872234Y8271676D01*
X27692165Y8124815D01*
X27544050Y7945775D01*
X27433532Y7741376D01*
X27420587Y7699558D01*
X27412803Y7726007D01*
X27305150Y7931929D01*
X27159549Y8113019D01*
X26981548Y8262380D01*
X26777925Y8374323D01*
X26556438Y8444583D01*
X26325521Y8470484D01*
X26308898Y8470600D01*
X25991102Y8470600D01*
X25759847Y8447925D01*
X25537400Y8380765D01*
X25332234Y8271676D01*
X25152165Y8124815D01*
X25004050Y7945775D01*
X24893532Y7741376D01*
X24880587Y7699558D01*
X24872803Y7726007D01*
X24765150Y7931929D01*
X24619549Y8113019D01*
X24441548Y8262380D01*
X24237925Y8374323D01*
X24016438Y8444583D01*
X23785521Y8470484D01*
X23768898Y8470600D01*
X23451102Y8470600D01*
X23219847Y8447925D01*
X22997400Y8380765D01*
X22792234Y8271676D01*
X22612165Y8124815D01*
X22464050Y7945775D01*
X22353532Y7741376D01*
X22340587Y7699558D01*
X22332803Y7726007D01*
X22225150Y7931929D01*
X22079549Y8113019D01*
X21901548Y8262380D01*
X21697925Y8374323D01*
X21476438Y8444583D01*
X21245521Y8470484D01*
X21228898Y8470600D01*
X20911102Y8470600D01*
X20679847Y8447925D01*
X20457400Y8380765D01*
X20252234Y8271676D01*
X20072165Y8124815D01*
X19924050Y7945775D01*
X19813532Y7741376D01*
X19800587Y7699558D01*
X19792803Y7726007D01*
X19685150Y7931929D01*
X19539549Y8113019D01*
X19361548Y8262380D01*
X19157925Y8374323D01*
X18936438Y8444583D01*
X18705521Y8470484D01*
X18688898Y8470600D01*
X18371102Y8470600D01*
X18139847Y8447925D01*
X17917400Y8380765D01*
X17712234Y8271676D01*
X17532165Y8124815D01*
X17384050Y7945775D01*
X17273532Y7741376D01*
X17204820Y7519403D01*
X17180531Y7288312D01*
X627000Y7288312D01*
X627000Y26447394D01*
X926080Y26746474D01*
X919613Y26283319D01*
X1010843Y25786246D01*
X1196884Y25316359D01*
X1470650Y24891557D01*
X1821714Y24528020D01*
X2236703Y24239595D01*
X2699810Y24037269D01*
X3193397Y23928747D01*
X3698662Y23918163D01*
X4196360Y24005920D01*
X4667533Y24188677D01*
X5094236Y24459471D01*
X5460215Y24807988D01*
X5751530Y25220953D01*
X5957085Y25682637D01*
X6069050Y26175453D01*
X6077111Y26752688D01*
X5978949Y27248439D01*
X5801302Y27679443D01*
X7291584Y27679443D01*
X7329712Y27471702D01*
X7407464Y27275324D01*
X7521878Y27097787D01*
X7668598Y26945855D01*
X7842033Y26825314D01*
X8035578Y26740756D01*
X8241862Y26695402D01*
X8436425Y26691327D01*
X8424732Y26636314D01*
X8421400Y26397671D01*
X8438115Y26306597D01*
X8271916Y26307757D01*
X8064447Y26268180D01*
X7868616Y26189059D01*
X7691882Y26073408D01*
X7540978Y25925632D01*
X7421651Y25751359D01*
X7338447Y25557228D01*
X7294533Y25350633D01*
X7291584Y25139443D01*
X7329712Y24931702D01*
X7407464Y24735324D01*
X7521878Y24557787D01*
X7668598Y24405855D01*
X7842033Y24285314D01*
X8035578Y24200756D01*
X8241862Y24155402D01*
X8453026Y24150979D01*
X8661028Y24187655D01*
X8741794Y24218982D01*
X14280387Y18680388D01*
X14312669Y18653872D01*
X14344635Y18627049D01*
X14346715Y18625905D01*
X14348554Y18624395D01*
X14385382Y18604648D01*
X14421938Y18584551D01*
X14424202Y18583833D01*
X14426298Y18582709D01*
X14466200Y18570510D01*
X14506024Y18557877D01*
X14508390Y18557612D01*
X14510659Y18556918D01*
X14552142Y18552704D01*
X14593689Y18548044D01*
X14598337Y18548012D01*
X14598422Y18548003D01*
X14598501Y18548010D01*
X14600000Y18548000D01*
X17564821Y18548000D01*
X17591662Y18520205D01*
X17692632Y18450029D01*
X17805309Y18400802D01*
X17925401Y18374398D01*
X18048336Y18371823D01*
X18169429Y18393175D01*
X18284068Y18437641D01*
X18387888Y18503526D01*
X18476933Y18588323D01*
X18547811Y18688800D01*
X18597824Y18801130D01*
X18625066Y18921036D01*
X18627027Y19061481D01*
X18603144Y19182100D01*
X18556287Y19295783D01*
X18488241Y19398200D01*
X18401599Y19485450D01*
X18299659Y19554209D01*
X18186306Y19601858D01*
X18065856Y19626583D01*
X17942898Y19627441D01*
X17822115Y19604400D01*
X17708108Y19558338D01*
X17605218Y19491009D01*
X17565383Y19452000D01*
X14787225Y19452000D01*
X9382694Y24856530D01*
X9396884Y24888401D01*
X9443677Y25094363D01*
X9446499Y25296422D01*
X9495205Y25285713D01*
X9733819Y25280715D01*
X9833803Y25298345D01*
X9831584Y25139443D01*
X9869712Y24931702D01*
X9947464Y24735324D01*
X10061878Y24557787D01*
X10208598Y24405855D01*
X10382033Y24285314D01*
X10575578Y24200756D01*
X10781862Y24155402D01*
X10993026Y24150979D01*
X11201028Y24187655D01*
X11397945Y24264034D01*
X11576276Y24377206D01*
X11729228Y24522861D01*
X11850977Y24695451D01*
X11936884Y24888401D01*
X11983677Y25094363D01*
X11984306Y25139443D01*
X12371584Y25139443D01*
X12409712Y24931702D01*
X12487464Y24735324D01*
X12601878Y24557787D01*
X12748598Y24405855D01*
X12922033Y24285314D01*
X13115578Y24200756D01*
X13321862Y24155402D01*
X13533026Y24150979D01*
X13741028Y24187655D01*
X13937945Y24264034D01*
X14116276Y24377206D01*
X14269228Y24522861D01*
X14390977Y24695451D01*
X14476884Y24888401D01*
X14523677Y25094363D01*
X14524306Y25139443D01*
X14911584Y25139443D01*
X14949712Y24931702D01*
X15027464Y24735324D01*
X15141878Y24557787D01*
X15288598Y24405855D01*
X15462033Y24285314D01*
X15655578Y24200756D01*
X15861862Y24155402D01*
X16073026Y24150979D01*
X16281028Y24187655D01*
X16361794Y24218982D01*
X17900388Y22680388D01*
X17932644Y22653892D01*
X17964635Y22627049D01*
X17966715Y22625905D01*
X17968554Y22624395D01*
X18005382Y22604648D01*
X18041938Y22584551D01*
X18044202Y22583833D01*
X18046298Y22582709D01*
X18086200Y22570510D01*
X18126024Y22557877D01*
X18128390Y22557612D01*
X18130659Y22556918D01*
X18172142Y22552704D01*
X18213689Y22548044D01*
X18218337Y22548012D01*
X18218422Y22548003D01*
X18218501Y22548010D01*
X18220000Y22548000D01*
X19812776Y22548000D01*
X24872745Y17488030D01*
X24872176Y17447280D01*
X24894372Y17326339D01*
X24939637Y17212013D01*
X25006246Y17108656D01*
X25091662Y17020205D01*
X25192632Y16950029D01*
X25305309Y16900802D01*
X25425401Y16874398D01*
X25548336Y16871823D01*
X25669429Y16893175D01*
X25784068Y16937641D01*
X25887888Y17003526D01*
X25976933Y17088323D01*
X26047811Y17188800D01*
X26097824Y17301130D01*
X26125066Y17421036D01*
X26127027Y17561481D01*
X26103144Y17682100D01*
X26056287Y17795783D01*
X25988241Y17898200D01*
X25901599Y17985450D01*
X25799659Y18054209D01*
X25686306Y18101858D01*
X25565856Y18126583D01*
X25512268Y18126957D01*
X20319612Y23319612D01*
X20287356Y23346108D01*
X20255365Y23372951D01*
X20253285Y23374095D01*
X20251446Y23375605D01*
X20214637Y23395342D01*
X20178062Y23415449D01*
X20175795Y23416168D01*
X20173701Y23417291D01*
X20133814Y23429485D01*
X20093976Y23442123D01*
X20091610Y23442388D01*
X20089341Y23443082D01*
X20047813Y23447301D01*
X20006311Y23451956D01*
X20001673Y23451988D01*
X20001578Y23451998D01*
X20001489Y23451990D01*
X20000000Y23452000D01*
X18407224Y23452000D01*
X17337010Y24522214D01*
X17822921Y24522214D01*
X17894297Y24354179D01*
X18077376Y24246988D01*
X18277849Y24177574D01*
X18488013Y24148604D01*
X18699789Y24161191D01*
X18905041Y24214852D01*
X19095880Y24307525D01*
X19165703Y24354179D01*
X19237079Y24522214D01*
X18530000Y25229293D01*
X17822921Y24522214D01*
X17337010Y24522214D01*
X17002694Y24856530D01*
X17016884Y24888401D01*
X17063677Y25094363D01*
X17066157Y25271987D01*
X17448604Y25271987D01*
X17461191Y25060211D01*
X17514852Y24854959D01*
X17607525Y24664120D01*
X17654179Y24594297D01*
X17822214Y24522921D01*
X18529293Y25230000D01*
X18530707Y25230000D01*
X19237786Y24522921D01*
X19405821Y24594297D01*
X19513012Y24777376D01*
X19582426Y24977849D01*
X19611396Y25188013D01*
X19598809Y25399789D01*
X19545148Y25605041D01*
X19452475Y25795880D01*
X19405821Y25865703D01*
X19237786Y25937079D01*
X18530707Y25230000D01*
X18529293Y25230000D01*
X17822214Y25937079D01*
X17654179Y25865703D01*
X17546988Y25682624D01*
X17477574Y25482151D01*
X17448604Y25271987D01*
X17066157Y25271987D01*
X17067046Y25335605D01*
X17026022Y25542793D01*
X16945536Y25738067D01*
X16828653Y25913989D01*
X16805022Y25937786D01*
X17822921Y25937786D01*
X18530000Y25230707D01*
X19237079Y25937786D01*
X19165703Y26105821D01*
X18982624Y26213012D01*
X18782151Y26282426D01*
X18571987Y26311396D01*
X18360211Y26298809D01*
X18154959Y26245148D01*
X17964120Y26152475D01*
X17894297Y26105821D01*
X17822921Y25937786D01*
X16805022Y25937786D01*
X16679827Y26063858D01*
X16504726Y26181965D01*
X16310019Y26263813D01*
X16103122Y26306283D01*
X15891916Y26307757D01*
X15684447Y26268180D01*
X15488616Y26189059D01*
X15311882Y26073408D01*
X15160978Y25925632D01*
X15041651Y25751359D01*
X14958447Y25557228D01*
X14914533Y25350633D01*
X14911584Y25139443D01*
X14524306Y25139443D01*
X14527046Y25335605D01*
X14486022Y25542793D01*
X14405536Y25738067D01*
X14288653Y25913989D01*
X14139827Y26063858D01*
X13964726Y26181965D01*
X13770019Y26263813D01*
X13563122Y26306283D01*
X13351916Y26307757D01*
X13144447Y26268180D01*
X12948616Y26189059D01*
X12771882Y26073408D01*
X12620978Y25925632D01*
X12501651Y25751359D01*
X12418447Y25557228D01*
X12374533Y25350633D01*
X12371584Y25139443D01*
X11984306Y25139443D01*
X11987046Y25335605D01*
X11946022Y25542793D01*
X11865536Y25738067D01*
X11748653Y25913989D01*
X11599827Y26063858D01*
X11424726Y26181965D01*
X11230019Y26263813D01*
X11023122Y26306283D01*
X10844340Y26307531D01*
X10853246Y26346731D01*
X10857053Y26619333D01*
X10842241Y26694137D01*
X10993026Y26690979D01*
X11201028Y26727655D01*
X11397945Y26804034D01*
X11576276Y26917206D01*
X11728548Y27062214D01*
X12742921Y27062214D01*
X12814297Y26894179D01*
X12997376Y26786988D01*
X13197849Y26717574D01*
X13408013Y26688604D01*
X13619789Y26701191D01*
X13825041Y26754852D01*
X14015880Y26847525D01*
X14085703Y26894179D01*
X14157079Y27062214D01*
X13450000Y27769293D01*
X12742921Y27062214D01*
X11728548Y27062214D01*
X11729228Y27062861D01*
X11850977Y27235451D01*
X11936884Y27428401D01*
X11983677Y27634363D01*
X11986157Y27811987D01*
X12368604Y27811987D01*
X12381191Y27600211D01*
X12434852Y27394959D01*
X12527525Y27204120D01*
X12574179Y27134297D01*
X12742214Y27062921D01*
X13449293Y27770000D01*
X13450707Y27770000D01*
X14157786Y27062921D01*
X14325821Y27134297D01*
X14433012Y27317376D01*
X14502426Y27517849D01*
X14524700Y27679443D01*
X14911584Y27679443D01*
X14949712Y27471702D01*
X15027464Y27275324D01*
X15141878Y27097787D01*
X15288598Y26945855D01*
X15462033Y26825314D01*
X15655578Y26740756D01*
X15861862Y26695402D01*
X16073026Y26690979D01*
X16281028Y26727655D01*
X16477945Y26804034D01*
X16656276Y26917206D01*
X16809228Y27062861D01*
X16930977Y27235451D01*
X17016884Y27428401D01*
X17063677Y27634363D01*
X17064306Y27679443D01*
X17451584Y27679443D01*
X17489712Y27471702D01*
X17567464Y27275324D01*
X17681878Y27097787D01*
X17828598Y26945855D01*
X18002033Y26825314D01*
X18195578Y26740756D01*
X18401862Y26695402D01*
X18613026Y26690979D01*
X18821028Y26727655D01*
X19017945Y26804034D01*
X19196276Y26917206D01*
X19349228Y27062861D01*
X19470977Y27235451D01*
X19556884Y27428401D01*
X19603677Y27634363D01*
X19604306Y27679443D01*
X19991584Y27679443D01*
X20029712Y27471702D01*
X20107464Y27275324D01*
X20221878Y27097787D01*
X20368598Y26945855D01*
X20542033Y26825314D01*
X20735578Y26740756D01*
X20941862Y26695402D01*
X21153026Y26690979D01*
X21361028Y26727655D01*
X21441794Y26758982D01*
X22082999Y26117777D01*
X22082999Y25598651D01*
X22025536Y25738067D01*
X21908653Y25913989D01*
X21759827Y26063858D01*
X21584726Y26181965D01*
X21390019Y26263813D01*
X21183122Y26306283D01*
X20971916Y26307757D01*
X20764447Y26268180D01*
X20568616Y26189059D01*
X20391882Y26073408D01*
X20240978Y25925632D01*
X20121651Y25751359D01*
X20038447Y25557228D01*
X19994533Y25350633D01*
X19991584Y25139443D01*
X20029712Y24931702D01*
X20107464Y24735324D01*
X20221878Y24557787D01*
X20368598Y24405855D01*
X20542033Y24285314D01*
X20735578Y24200756D01*
X20941862Y24155402D01*
X21153026Y24150979D01*
X21361028Y24187655D01*
X21557945Y24264034D01*
X21736276Y24377206D01*
X21889228Y24522861D01*
X22010977Y24695451D01*
X22082999Y24857215D01*
X22082999Y23965001D01*
X22087070Y23923483D01*
X22090712Y23881855D01*
X22091375Y23879573D01*
X22091607Y23877207D01*
X22103675Y23837237D01*
X22115323Y23797143D01*
X22116417Y23795033D01*
X22117104Y23792757D01*
X22136700Y23755904D01*
X22155920Y23718824D01*
X22157404Y23716965D01*
X22158519Y23714868D01*
X22184886Y23682538D01*
X22210955Y23649882D01*
X22214215Y23646577D01*
X22214273Y23646506D01*
X22214339Y23646451D01*
X22215387Y23645389D01*
X28622745Y17238030D01*
X28622176Y17197280D01*
X28644372Y17076339D01*
X28689637Y16962013D01*
X28756246Y16858656D01*
X28841662Y16770205D01*
X28942632Y16700029D01*
X29055309Y16650802D01*
X29175401Y16624398D01*
X29298336Y16621823D01*
X29419429Y16643175D01*
X29534068Y16687641D01*
X29637888Y16753526D01*
X29726933Y16838323D01*
X29797811Y16938800D01*
X29847824Y17051130D01*
X29875066Y17171036D01*
X29877027Y17311481D01*
X29853144Y17432100D01*
X29806287Y17545783D01*
X29738241Y17648200D01*
X29651599Y17735450D01*
X29549659Y17804209D01*
X29436306Y17851858D01*
X29315856Y17876583D01*
X29262268Y17876957D01*
X22986999Y24152225D01*
X22986999Y24351365D01*
X23082033Y24285314D01*
X23275578Y24200756D01*
X23481862Y24155402D01*
X23693026Y24150979D01*
X23901028Y24187655D01*
X24097945Y24264034D01*
X24276276Y24377206D01*
X24429228Y24522861D01*
X24550977Y24695451D01*
X24636884Y24888401D01*
X24683677Y25094363D01*
X24684306Y25139443D01*
X25071584Y25139443D01*
X25109712Y24931702D01*
X25187464Y24735324D01*
X25301878Y24557787D01*
X25448598Y24405855D01*
X25622033Y24285314D01*
X25815578Y24200756D01*
X26021862Y24155402D01*
X26233026Y24150979D01*
X26441028Y24187655D01*
X26637945Y24264034D01*
X26816276Y24377206D01*
X26969228Y24522861D01*
X27090977Y24695451D01*
X27176884Y24888401D01*
X27223677Y25094363D01*
X27224306Y25139443D01*
X27611584Y25139443D01*
X27649712Y24931702D01*
X27727464Y24735324D01*
X27841878Y24557787D01*
X27988598Y24405855D01*
X28162033Y24285314D01*
X28355578Y24200756D01*
X28561862Y24155402D01*
X28773026Y24150979D01*
X28981028Y24187655D01*
X29177945Y24264034D01*
X29356276Y24377206D01*
X29509228Y24522861D01*
X29630977Y24695451D01*
X29716884Y24888401D01*
X29763677Y25094363D01*
X29764306Y25139443D01*
X30151584Y25139443D01*
X30189712Y24931702D01*
X30267464Y24735324D01*
X30381878Y24557787D01*
X30528598Y24405855D01*
X30702033Y24285314D01*
X30895578Y24200756D01*
X31101862Y24155402D01*
X31313026Y24150979D01*
X31521028Y24187655D01*
X31717945Y24264034D01*
X31896276Y24377206D01*
X32049228Y24522861D01*
X32170977Y24695451D01*
X32256884Y24888401D01*
X32303677Y25094363D01*
X32304306Y25139443D01*
X32691584Y25139443D01*
X32729712Y24931702D01*
X32807464Y24735324D01*
X32921878Y24557787D01*
X33068598Y24405855D01*
X33242033Y24285314D01*
X33435578Y24200756D01*
X33641862Y24155402D01*
X33853026Y24150979D01*
X34061028Y24187655D01*
X34257945Y24264034D01*
X34436276Y24377206D01*
X34589228Y24522861D01*
X34710977Y24695451D01*
X34796884Y24888401D01*
X34843677Y25094363D01*
X34847046Y25335605D01*
X34806022Y25542793D01*
X34725536Y25738067D01*
X34608653Y25913989D01*
X34459827Y26063858D01*
X34284726Y26181965D01*
X34090019Y26263813D01*
X33883122Y26306283D01*
X33671916Y26307757D01*
X33464447Y26268180D01*
X33268616Y26189059D01*
X33091882Y26073408D01*
X32940978Y25925632D01*
X32821651Y25751359D01*
X32738447Y25557228D01*
X32694533Y25350633D01*
X32691584Y25139443D01*
X32304306Y25139443D01*
X32307046Y25335605D01*
X32266022Y25542793D01*
X32185536Y25738067D01*
X32068653Y25913989D01*
X31919827Y26063858D01*
X31744726Y26181965D01*
X31550019Y26263813D01*
X31343122Y26306283D01*
X31131916Y26307757D01*
X30924447Y26268180D01*
X30728616Y26189059D01*
X30551882Y26073408D01*
X30400978Y25925632D01*
X30281651Y25751359D01*
X30198447Y25557228D01*
X30154533Y25350633D01*
X30151584Y25139443D01*
X29764306Y25139443D01*
X29767046Y25335605D01*
X29726022Y25542793D01*
X29645536Y25738067D01*
X29528653Y25913989D01*
X29379827Y26063858D01*
X29204726Y26181965D01*
X29010019Y26263813D01*
X28803122Y26306283D01*
X28591916Y26307757D01*
X28384447Y26268180D01*
X28188616Y26189059D01*
X28011882Y26073408D01*
X27860978Y25925632D01*
X27741651Y25751359D01*
X27658447Y25557228D01*
X27614533Y25350633D01*
X27611584Y25139443D01*
X27224306Y25139443D01*
X27227046Y25335605D01*
X27186022Y25542793D01*
X27105536Y25738067D01*
X26988653Y25913989D01*
X26839827Y26063858D01*
X26664726Y26181965D01*
X26470019Y26263813D01*
X26263122Y26306283D01*
X26051916Y26307757D01*
X25844447Y26268180D01*
X25648616Y26189059D01*
X25471882Y26073408D01*
X25320978Y25925632D01*
X25201651Y25751359D01*
X25118447Y25557228D01*
X25074533Y25350633D01*
X25071584Y25139443D01*
X24684306Y25139443D01*
X24687046Y25335605D01*
X24646022Y25542793D01*
X24565536Y25738067D01*
X24448653Y25913989D01*
X24299827Y26063858D01*
X24124726Y26181965D01*
X23930019Y26263813D01*
X23723122Y26306283D01*
X23511916Y26307757D01*
X23304447Y26268180D01*
X23108616Y26189059D01*
X22986999Y26109475D01*
X22986999Y26305001D01*
X22982928Y26346523D01*
X22979286Y26388147D01*
X22978623Y26390429D01*
X22978391Y26392795D01*
X22966323Y26432765D01*
X22954675Y26472859D01*
X22953581Y26474969D01*
X22952894Y26477245D01*
X22933298Y26514098D01*
X22914078Y26551178D01*
X22912594Y26553037D01*
X22911479Y26555134D01*
X22885092Y26587488D01*
X22859043Y26620119D01*
X22855784Y26623423D01*
X22855725Y26623496D01*
X22855658Y26623552D01*
X22854611Y26624613D01*
X22417010Y27062214D01*
X22902921Y27062214D01*
X22974297Y26894179D01*
X23157376Y26786988D01*
X23357849Y26717574D01*
X23568013Y26688604D01*
X23779789Y26701191D01*
X23985041Y26754852D01*
X24175880Y26847525D01*
X24245703Y26894179D01*
X24317079Y27062214D01*
X23610000Y27769293D01*
X22902921Y27062214D01*
X22417010Y27062214D01*
X22082694Y27396530D01*
X22096884Y27428401D01*
X22143677Y27634363D01*
X22146157Y27811987D01*
X22528604Y27811987D01*
X22541191Y27600211D01*
X22594852Y27394959D01*
X22687525Y27204120D01*
X22734179Y27134297D01*
X22902214Y27062921D01*
X23609293Y27770000D01*
X23610707Y27770000D01*
X24317786Y27062921D01*
X24485821Y27134297D01*
X24593012Y27317376D01*
X24662426Y27517849D01*
X24684700Y27679443D01*
X25071584Y27679443D01*
X25109712Y27471702D01*
X25187464Y27275324D01*
X25301878Y27097787D01*
X25448598Y26945855D01*
X25622033Y26825314D01*
X25815578Y26740756D01*
X26021862Y26695402D01*
X26233026Y26690979D01*
X26441028Y26727655D01*
X26637945Y26804034D01*
X26816276Y26917206D01*
X26969228Y27062861D01*
X27090977Y27235451D01*
X27176884Y27428401D01*
X27223677Y27634363D01*
X27224306Y27679443D01*
X27611584Y27679443D01*
X27649712Y27471702D01*
X27727464Y27275324D01*
X27841878Y27097787D01*
X27988598Y26945855D01*
X28162033Y26825314D01*
X28355578Y26740756D01*
X28561862Y26695402D01*
X28773026Y26690979D01*
X28981028Y26727655D01*
X29177945Y26804034D01*
X29356276Y26917206D01*
X29508548Y27062214D01*
X30522921Y27062214D01*
X30594297Y26894179D01*
X30777376Y26786988D01*
X30977849Y26717574D01*
X31188013Y26688604D01*
X31399789Y26701191D01*
X31605041Y26754852D01*
X31795880Y26847525D01*
X31865703Y26894179D01*
X31937079Y27062214D01*
X31230000Y27769293D01*
X30522921Y27062214D01*
X29508548Y27062214D01*
X29509228Y27062861D01*
X29630977Y27235451D01*
X29716884Y27428401D01*
X29763677Y27634363D01*
X29766157Y27811987D01*
X30148604Y27811987D01*
X30161191Y27600211D01*
X30214852Y27394959D01*
X30307525Y27204120D01*
X30354179Y27134297D01*
X30522214Y27062921D01*
X31229293Y27770000D01*
X31230707Y27770000D01*
X31937786Y27062921D01*
X32105821Y27134297D01*
X32213012Y27317376D01*
X32282426Y27517849D01*
X32304700Y27679443D01*
X32691584Y27679443D01*
X32729712Y27471702D01*
X32807464Y27275324D01*
X32921878Y27097787D01*
X33068598Y26945855D01*
X33242033Y26825314D01*
X33435578Y26740756D01*
X33641862Y26695402D01*
X33853026Y26690979D01*
X34061028Y26727655D01*
X34257945Y26804034D01*
X34436276Y26917206D01*
X34589228Y27062861D01*
X34710977Y27235451D01*
X34796884Y27428401D01*
X34843677Y27634363D01*
X34844306Y27679443D01*
X35231584Y27679443D01*
X35269712Y27471702D01*
X35347464Y27275324D01*
X35461878Y27097787D01*
X35608598Y26945855D01*
X35782033Y26825314D01*
X35975578Y26740756D01*
X36181862Y26695402D01*
X36376425Y26691327D01*
X36364732Y26636314D01*
X36361400Y26397671D01*
X36378115Y26306597D01*
X36211916Y26307757D01*
X36004447Y26268180D01*
X35808616Y26189059D01*
X35631882Y26073408D01*
X35480978Y25925632D01*
X35361651Y25751359D01*
X35278447Y25557228D01*
X35234533Y25350633D01*
X35231584Y25139443D01*
X35269712Y24931702D01*
X35347464Y24735324D01*
X35461878Y24557787D01*
X35608598Y24405855D01*
X35782033Y24285314D01*
X35975578Y24200756D01*
X36181862Y24155402D01*
X36393026Y24150979D01*
X36601028Y24187655D01*
X36797945Y24264034D01*
X36976276Y24377206D01*
X37128548Y24522214D01*
X38142921Y24522214D01*
X38214297Y24354179D01*
X38397376Y24246988D01*
X38597849Y24177574D01*
X38808013Y24148604D01*
X39019789Y24161191D01*
X39225041Y24214852D01*
X39415880Y24307525D01*
X39485703Y24354179D01*
X39557079Y24522214D01*
X38850000Y25229293D01*
X38142921Y24522214D01*
X37128548Y24522214D01*
X37129228Y24522861D01*
X37250977Y24695451D01*
X37336884Y24888401D01*
X37383677Y25094363D01*
X37386499Y25296422D01*
X37435205Y25285713D01*
X37673819Y25280715D01*
X37772198Y25298062D01*
X37768604Y25271987D01*
X37781191Y25060211D01*
X37834852Y24854959D01*
X37927525Y24664120D01*
X37974179Y24594297D01*
X38142214Y24522921D01*
X38849293Y25230000D01*
X38850707Y25230000D01*
X39557786Y24522921D01*
X39725821Y24594297D01*
X39833012Y24777376D01*
X39902426Y24977849D01*
X39931396Y25188013D01*
X39918809Y25399789D01*
X39865148Y25605041D01*
X39772475Y25795880D01*
X39725821Y25865703D01*
X39557786Y25937079D01*
X38850707Y25230000D01*
X38849293Y25230000D01*
X38835151Y25244142D01*
X38835858Y25244849D01*
X38850000Y25230707D01*
X39557079Y25937786D01*
X39485703Y26105821D01*
X39302624Y26213012D01*
X39102151Y26282426D01*
X38891987Y26311396D01*
X38783757Y26304963D01*
X38793246Y26346731D01*
X38797053Y26619333D01*
X38782241Y26694137D01*
X38933026Y26690979D01*
X39141028Y26727655D01*
X39337945Y26804034D01*
X39516276Y26917206D01*
X39669228Y27062861D01*
X39790977Y27235451D01*
X39876884Y27428401D01*
X39923677Y27634363D01*
X39927046Y27875605D01*
X39886022Y28082793D01*
X39805536Y28278067D01*
X39688653Y28453989D01*
X39539827Y28603858D01*
X39364726Y28721965D01*
X39170019Y28803813D01*
X38963122Y28846283D01*
X38751916Y28847757D01*
X38544447Y28808180D01*
X38348616Y28729059D01*
X38171882Y28613408D01*
X38020978Y28465632D01*
X37901651Y28291359D01*
X37818447Y28097228D01*
X37774533Y27890633D01*
X37771913Y27703035D01*
X37707827Y27716190D01*
X37469166Y27717856D01*
X37384618Y27701728D01*
X37387046Y27875605D01*
X37346022Y28082793D01*
X37265536Y28278067D01*
X37148653Y28453989D01*
X36999827Y28603858D01*
X36824726Y28721965D01*
X36630019Y28803813D01*
X36423122Y28846283D01*
X36211916Y28847757D01*
X36004447Y28808180D01*
X35808616Y28729059D01*
X35631882Y28613408D01*
X35480978Y28465632D01*
X35361651Y28291359D01*
X35278447Y28097228D01*
X35234533Y27890633D01*
X35231584Y27679443D01*
X34844306Y27679443D01*
X34847046Y27875605D01*
X34806022Y28082793D01*
X34725536Y28278067D01*
X34608653Y28453989D01*
X34459827Y28603858D01*
X34284726Y28721965D01*
X34090019Y28803813D01*
X33883122Y28846283D01*
X33671916Y28847757D01*
X33464447Y28808180D01*
X33268616Y28729059D01*
X33091882Y28613408D01*
X32940978Y28465632D01*
X32821651Y28291359D01*
X32738447Y28097228D01*
X32694533Y27890633D01*
X32691584Y27679443D01*
X32304700Y27679443D01*
X32311396Y27728013D01*
X32298809Y27939789D01*
X32245148Y28145041D01*
X32152475Y28335880D01*
X32105821Y28405703D01*
X31937786Y28477079D01*
X31230707Y27770000D01*
X31229293Y27770000D01*
X30522214Y28477079D01*
X30354179Y28405703D01*
X30246988Y28222624D01*
X30177574Y28022151D01*
X30148604Y27811987D01*
X29766157Y27811987D01*
X29767046Y27875605D01*
X29726022Y28082793D01*
X29645536Y28278067D01*
X29528653Y28453989D01*
X29505022Y28477786D01*
X30522921Y28477786D01*
X31230000Y27770707D01*
X31937079Y28477786D01*
X31865703Y28645821D01*
X31682624Y28753012D01*
X31482151Y28822426D01*
X31271987Y28851396D01*
X31060211Y28838809D01*
X30854959Y28785148D01*
X30664120Y28692475D01*
X30594297Y28645821D01*
X30522921Y28477786D01*
X29505022Y28477786D01*
X29379827Y28603858D01*
X29204726Y28721965D01*
X29010019Y28803813D01*
X28803122Y28846283D01*
X28591916Y28847757D01*
X28384447Y28808180D01*
X28188616Y28729059D01*
X28011882Y28613408D01*
X27860978Y28465632D01*
X27741651Y28291359D01*
X27658447Y28097228D01*
X27614533Y27890633D01*
X27611584Y27679443D01*
X27224306Y27679443D01*
X27227046Y27875605D01*
X27186022Y28082793D01*
X27105536Y28278067D01*
X26988653Y28453989D01*
X26839827Y28603858D01*
X26664726Y28721965D01*
X26470019Y28803813D01*
X26263122Y28846283D01*
X26051916Y28847757D01*
X25844447Y28808180D01*
X25648616Y28729059D01*
X25471882Y28613408D01*
X25320978Y28465632D01*
X25201651Y28291359D01*
X25118447Y28097228D01*
X25074533Y27890633D01*
X25071584Y27679443D01*
X24684700Y27679443D01*
X24691396Y27728013D01*
X24678809Y27939789D01*
X24625148Y28145041D01*
X24532475Y28335880D01*
X24485821Y28405703D01*
X24317786Y28477079D01*
X23610707Y27770000D01*
X23609293Y27770000D01*
X22902214Y28477079D01*
X22734179Y28405703D01*
X22626988Y28222624D01*
X22557574Y28022151D01*
X22528604Y27811987D01*
X22146157Y27811987D01*
X22147046Y27875605D01*
X22106022Y28082793D01*
X22025536Y28278067D01*
X21908653Y28453989D01*
X21885022Y28477786D01*
X22902921Y28477786D01*
X23610000Y27770707D01*
X24317079Y28477786D01*
X24245703Y28645821D01*
X24062624Y28753012D01*
X23862151Y28822426D01*
X23651987Y28851396D01*
X23440211Y28838809D01*
X23234959Y28785148D01*
X23044120Y28692475D01*
X22974297Y28645821D01*
X22902921Y28477786D01*
X21885022Y28477786D01*
X21759827Y28603858D01*
X21584726Y28721965D01*
X21390019Y28803813D01*
X21183122Y28846283D01*
X20971916Y28847757D01*
X20764447Y28808180D01*
X20568616Y28729059D01*
X20391882Y28613408D01*
X20240978Y28465632D01*
X20121651Y28291359D01*
X20038447Y28097228D01*
X19994533Y27890633D01*
X19991584Y27679443D01*
X19604306Y27679443D01*
X19607046Y27875605D01*
X19566022Y28082793D01*
X19485536Y28278067D01*
X19368653Y28453989D01*
X19219827Y28603858D01*
X19044726Y28721965D01*
X18850019Y28803813D01*
X18643122Y28846283D01*
X18431916Y28847757D01*
X18224447Y28808180D01*
X18028616Y28729059D01*
X17851882Y28613408D01*
X17700978Y28465632D01*
X17581651Y28291359D01*
X17498447Y28097228D01*
X17454533Y27890633D01*
X17451584Y27679443D01*
X17064306Y27679443D01*
X17067046Y27875605D01*
X17026022Y28082793D01*
X16945536Y28278067D01*
X16828653Y28453989D01*
X16679827Y28603858D01*
X16504726Y28721965D01*
X16310019Y28803813D01*
X16103122Y28846283D01*
X15891916Y28847757D01*
X15684447Y28808180D01*
X15488616Y28729059D01*
X15311882Y28613408D01*
X15160978Y28465632D01*
X15041651Y28291359D01*
X14958447Y28097228D01*
X14914533Y27890633D01*
X14911584Y27679443D01*
X14524700Y27679443D01*
X14531396Y27728013D01*
X14518809Y27939789D01*
X14465148Y28145041D01*
X14372475Y28335880D01*
X14325821Y28405703D01*
X14157786Y28477079D01*
X13450707Y27770000D01*
X13449293Y27770000D01*
X12742214Y28477079D01*
X12574179Y28405703D01*
X12466988Y28222624D01*
X12397574Y28022151D01*
X12368604Y27811987D01*
X11986157Y27811987D01*
X11987046Y27875605D01*
X11946022Y28082793D01*
X11865536Y28278067D01*
X11748653Y28453989D01*
X11725022Y28477786D01*
X12742921Y28477786D01*
X13450000Y27770707D01*
X14157079Y28477786D01*
X14085703Y28645821D01*
X13902624Y28753012D01*
X13702151Y28822426D01*
X13491987Y28851396D01*
X13280211Y28838809D01*
X13074959Y28785148D01*
X12884120Y28692475D01*
X12814297Y28645821D01*
X12742921Y28477786D01*
X11725022Y28477786D01*
X11599827Y28603858D01*
X11424726Y28721965D01*
X11230019Y28803813D01*
X11023122Y28846283D01*
X10811916Y28847757D01*
X10604447Y28808180D01*
X10408616Y28729059D01*
X10231882Y28613408D01*
X10080978Y28465632D01*
X9961651Y28291359D01*
X9878447Y28097228D01*
X9834533Y27890633D01*
X9831913Y27703035D01*
X9767827Y27716190D01*
X9529166Y27717856D01*
X9444618Y27701728D01*
X9447046Y27875605D01*
X9406022Y28082793D01*
X9325536Y28278067D01*
X9208653Y28453989D01*
X9059827Y28603858D01*
X8884726Y28721965D01*
X8690019Y28803813D01*
X8483122Y28846283D01*
X8271916Y28847757D01*
X8064447Y28808180D01*
X7868616Y28729059D01*
X7691882Y28613408D01*
X7540978Y28465632D01*
X7421651Y28291359D01*
X7338447Y28097228D01*
X7294533Y27890633D01*
X7291584Y27679443D01*
X5801302Y27679443D01*
X5786365Y27715682D01*
X5506695Y28136620D01*
X5150590Y28495220D01*
X4731614Y28777823D01*
X4265727Y28973664D01*
X3770673Y29075284D01*
X3265310Y29078812D01*
X3256793Y29077187D01*
X3552606Y29373000D01*
X40447394Y29373000D01*
X43373000Y26447394D01*
M02*
