M48
METRIC,TZ
T1C0.400
T2C1.016
T3C3.000
T4C1.780
%
G90
G05
T1
X006000Y018500
X006000Y010000
X015000Y013000
X018000Y021000
X018000Y019000
X019500Y013000
X025500Y017500
X026355Y011110
X027625Y020510
X029250Y017250
X040500Y010500
T2
X008370Y027770
X008370Y025230
X010910Y027770
X010910Y025230
X013450Y027770
X013450Y025230
X015990Y027770
X015990Y025230
X018530Y027770
X018530Y025230
X018530Y007280
X018530Y004740
X018530Y002200
X021070Y027770
X021070Y025230
X021070Y007280
X021070Y004740
X021070Y002200
X023610Y027770
X023610Y025230
X023610Y007280
X023610Y004740
X023610Y002200
X026150Y027770
X026150Y025230
X026150Y007280
X026150Y004740
X026150Y002200
X028690Y027770
X028690Y025230
X028690Y007280
X028690Y004740
X028690Y002200
X031230Y027770
X031230Y025230
X031230Y007280
X031230Y004740
X031230Y002200
X033770Y027770
X033770Y025230
X033770Y007280
X033770Y004740
X033770Y002200
X036310Y027770
X036310Y025230
X036310Y007280
X036310Y004740
X036310Y002200
X038850Y027770
X038850Y025230
X038850Y007280
X038850Y004740
X038850Y002200
T3
X003500Y026500
X003500Y003500
T4
X009640Y026500
X037580Y026500
T0
M30
