G04 #@! TF.FileFunction,Soldermask,Bot*
%FSLAX46Y46*%
G04 Gerber Fmt 4.6, Leading zero omitted, Abs format (unit mm)*
G04 Created by KiCad (PCBNEW 4.0.0-stable) date Thursday, March 17, 2016 'AMt' 12:56:01 AM*
%MOMM*%
G01*
G04 APERTURE LIST*
%ADD10C,0.100000*%
%ADD11C,4.900000*%
%ADD12C,1.900000*%
%ADD13R,2.432000X2.127200*%
%ADD14O,2.432000X2.127200*%
G04 APERTURE END LIST*
D10*
D11*
X3500000Y26500000D03*
X3500000Y3500000D03*
D12*
X8370000Y25230000D03*
X8370000Y27770000D03*
X10910000Y25230000D03*
X13450000Y25230000D03*
X15990000Y25230000D03*
X18530000Y25230000D03*
X21070000Y25230000D03*
X23610000Y25230000D03*
X26150000Y25230000D03*
X28690000Y25230000D03*
X31230000Y25230000D03*
X33770000Y25230000D03*
X36310000Y25230000D03*
X38850000Y25230000D03*
X10910000Y27770000D03*
X13450000Y27770000D03*
X15990000Y27770000D03*
X18530000Y27770000D03*
X21070000Y27770000D03*
X23610000Y27770000D03*
X26150000Y27770000D03*
X28690000Y27770000D03*
X31230000Y27770000D03*
X33770000Y27770000D03*
X36310000Y27770000D03*
X38850000Y27770000D03*
D13*
X18530000Y2200000D03*
D14*
X18530000Y4740000D03*
X18530000Y7280000D03*
D13*
X21070000Y2200000D03*
D14*
X21070000Y4740000D03*
X21070000Y7280000D03*
D13*
X23610000Y2200000D03*
D14*
X23610000Y4740000D03*
X23610000Y7280000D03*
D13*
X26150000Y2200000D03*
D14*
X26150000Y4740000D03*
X26150000Y7280000D03*
D13*
X28690000Y2200000D03*
D14*
X28690000Y4740000D03*
X28690000Y7280000D03*
D13*
X31230000Y2200000D03*
D14*
X31230000Y4740000D03*
X31230000Y7280000D03*
D13*
X33770000Y2200000D03*
D14*
X33770000Y4740000D03*
X33770000Y7280000D03*
D13*
X36310000Y2200000D03*
D14*
X36310000Y4740000D03*
X36310000Y7280000D03*
D13*
X38850000Y2200000D03*
D14*
X38850000Y4740000D03*
X38850000Y7280000D03*
M02*
